<?xml version="1.0" encoding="UTF-8"?>
<svg id="Laag_2" data-name="Laag 2" xmlns="http://www.w3.org/2000/svg" viewBox="0 0 165.19 202.02">
  <defs>
    <style>
      .cls-1 {
        stroke-width: .68px;
      }

      .cls-1, .cls-2, .cls-3, .cls-4 {
        fill: none;
        stroke: #000;
        stroke-miterlimit: 10;
      }

      .cls-2 {
        stroke-width: 3.87px;
      }

      .cls-5 {
        font-family: MyriadConceptRoman-Regular, 'Myriad Variable Concept';
        font-size: 33.68px;
        font-variation-settings: 'wght' 400, 'wdth' 100;
      }

      .cls-3, .cls-4 {
        stroke-width: 2.9px;
      }

      .cls-4 {
        stroke-linecap: round;
      }

      .cls-6 {
        font-family: Poppins-Regular, Poppins;
        font-size: 29.58px;
      }
    </style>
  </defs>
  <g id="Laag_2-2" data-name="Laag 2">
    <g>
      <g>
        <path class="cls-2" d="m3.5,77.89h24.49c.84,0,1.53.62,1.57,1.4l2.3,46.58c.04.9-.77,1.62-1.73,1.53l-25.91-2.52c-.79-.08-1.39-.69-1.41-1.43l-.89-44.06c-.02-.82.69-1.5,1.57-1.5Z"/>
        <path class="cls-2" d="m31.12,110.78c5.16.02,9.39.58,12.45,1.14,2.3.42,4.48.83,7.23,1.81,3.44,1.23,4.49,2.17,8.88,4.46,1.76.92,6.09,3.16,11.01,4.95,4.13,1.5,6.98,2.54,10.82,2.92,8.55.85,15.55-2.2,19.61-4.02,2.34-1.05,4.6-2.47,9.02-5.26,8.87-5.6,11.18-7.76,21.21-14.37,4.94-3.25,7.48-4.92,10.91-6.76,5.53-2.98,8.3-4.46,11.62-5.7,3.77-1.41,5.21-1.53,6.8-3.18,1.99-2.07,3.54-5.85,1.84-8.88-1.51-2.71-4.83-3.44-6.09-3.71-1.07-.24-4.51-.83-10.63,1.86-4.73,2.08-8.27,3.84-12.47,6.01-4.63,2.39-2.06,1.21-14.31,6.85-8.95,4.12-11.18,4.46-16.02,5.3-4.02.7-7.77.84-10.01.82"/>
        <path class="cls-2" d="m79.72,98.68c7.42-1.85,13.58-3.7,18.28-5.24.69-.23,5.3-1.76,10.54-4.91,3.37-2.02,5.17-3.62,5.95-5.92.2-.6,1.01-2.97-.28-4.6-.92-1.16-2.5-1.43-4.96-1.59-6.71-.45-11.51.75-12.05.84-3.12.53-4.81.63-10.2,1.55-1.34.23-2.91.48-5.01.53-3.21.08-5.09.12-6.66-.93-2.18-1.46-1.18-3.32-3.26-5.13-.43-.38-1.18-.05-7.71-.67-4.93-.47-7.02-.55-9.21.23-.7.25-2.14,1.3-4.04,3.38-2.42,2.65-2.78,2.8-4.78,4.84-1.54,1.57-4.07,2.07-9.07,3.01-3.05.57-5.61.86-7.39,1.01"/>
        <ellipse class="cls-3" cx="61.05" cy="36.87" rx="19.8" ry="18.52"/>
        <text class="cls-5" transform="translate(50.26 48.25) scale(1.07 1)"><tspan x="0" y="0">€</tspan></text>
        <path class="cls-3" d="m70.23,20.45c-1.63-3.32-2.32-6.03-1.37-9.09,1.6-5.14,7.74-10.91,14.59-9.77,5.82.97,10.33,6.76,10.16,13.75,2.25-6.67,8.51-10.79,14.35-9.95,6.88.99,10.7,8.3,10.44,13.65-.32,6.62-6.88,9.68-16.55,19.21-7.32,7.21-12.29,14.05-15.41,18.85,0-.03-.02-.07-.02-.1-1.03-4.3-2.96-10.14-5.87-16.79"/>
        <g>
          <ellipse class="cls-3" cx="142.15" cy="35.03" rx="4.67" ry="3.37" transform="translate(31.62 131.04) rotate(-54.82)"/>
          <line class="cls-4" x1="134.93" y1="36.87" x2="140.12" y2="39.18"/>
          <line class="cls-4" x1="140.21" y1="29.23" x2="144.45" y2="30.99"/>
          <ellipse class="cls-1" cx="125.98" cy="30.89" rx=".36" ry=".33"/>
          <ellipse class="cls-1" cx="128.76" cy="32.22" rx=".36" ry=".33"/>
          <ellipse class="cls-1" cx="128.34" cy="26.98" rx=".36" ry=".33"/>
          <ellipse class="cls-1" cx="131.04" cy="28.33" rx=".36" ry=".33"/>
          <path class="cls-3" d="m128.39,46.22c-7.26,10.2-10.56,14.92-11.98,17.01-.07.1-.27.39-.54.77-1.14,1.56-3.14,3.46-6.01,5.17-3.1,1.85-5.42,2.38-6.57,2.6-4.11.79-7.84,1.04-10.59-2.64-2.16-2.89-2.62-7.15-.6-9.25.55-.57,1.89-1.86,3.01-2.58,1.8-1.17,3.22-1.78,3.83-2.07,1.57-.75,3.01-2.04,5.33-5.04l9.26-13.15,9.26-13.15c2.03-3.17,2.73-4.92,2.85-6.56.05-.64.09-2.1.53-4.11.27-1.24,1.01-2.9,1.35-3.6,1.26-2.56,5.63-3.84,9.32-3.13,4.7.91,5.93,4.21,6.77,8.06.24,1.08.63,3.29.04,6.68-.55,3.14-1.62,5.61-2.7,7.21-.26.39-.47.67-.54.77-1.5,2.05-4.83,6.75-11.98,17.01"/>
          <ellipse class="cls-3" cx="122.83" cy="62.46" rx="4.71" ry="3.34" transform="translate(-6.17 110.93) rotate(-47.54)"/>
          <line class="cls-4" x1="121.78" y1="55.53" x2="126.11" y2="59.08"/>
          <line class="cls-4" x1="116.37" y1="63.08" x2="119.76" y2="66.03"/>
          <ellipse class="cls-1" cx="112.38" cy="50.19" rx=".36" ry=".33"/>
          <ellipse class="cls-1" cx="114.79" cy="52.06" rx=".36" ry=".33"/>
          <ellipse class="cls-1" cx="109.47" cy="53.76" rx=".36" ry=".33"/>
          <ellipse class="cls-1" cx="111.86" cy="55.55" rx=".36" ry=".33"/>
        </g>
      </g>
      <text class="cls-6" transform="translate(25.89 184.49) scale(1.07 1)"><tspan x="0" y="0">Charity</tspan></text>
    </g>
  </g>
</svg>