<?xml version="1.0" encoding="UTF-8"?>
<svg id="Laag_2" data-name="Laag 2" xmlns="http://www.w3.org/2000/svg" viewBox="0 0 153.74 200.12">
  <defs>
    <style>
      .cls-1 {
        font-size: 31.36px;
      }

      .cls-1, .cls-2 {
        font-family: Poppins-Regular, Poppins;
      }

      .cls-3, .cls-4, .cls-5, .cls-6, .cls-7, .cls-8, .cls-9, .cls-10, .cls-11 {
        fill: none;
        stroke-miterlimit: 10;
      }

      .cls-3, .cls-5, .cls-6, .cls-11 {
        stroke-width: 2.5px;
      }

      .cls-3, .cls-5, .cls-7, .cls-8, .cls-9 {
        stroke: #000;
      }

      .cls-4, .cls-6, .cls-10, .cls-11 {
        stroke: #666;
      }

      .cls-4, .cls-8 {
        stroke-width: 3.74px;
      }

      .cls-5, .cls-11 {
        stroke-linecap: round;
      }

      .cls-7, .cls-10 {
        stroke-width: 1.25px;
      }

      .cls-9 {
        stroke-width: 3.17px;
      }

      .cls-2 {
        font-size: 26px;
      }
    </style>
  </defs>
  <g id="Laag_2-2" data-name="Laag 2">
    <g>
      <g>
        <ellipse class="cls-6" cx="107.89" cy="96.97" rx="8.94" ry="5.98" transform="translate(-4.19 4.87) rotate(-2.54)"/>
        <line class="cls-11" x1="97.75" y1="88.25" x2="99.08" y2="98.19"/>
        <line class="cls-11" x1="115.48" y1="88.28" x2="116.8" y2="96.25"/>
        <ellipse class="cls-10" cx="98.7" cy="69.12" rx=".65" ry=".62"/>
        <ellipse class="cls-10" cx="99.26" cy="74.53" rx=".65" ry=".62"/>
        <ellipse class="cls-10" cx="107.44" cy="68.62" rx=".65" ry=".62"/>
        <ellipse class="cls-10" cx="107.9" cy="73.94" rx=".65" ry=".62"/>
        <path class="cls-4" d="m58.18,87.86c4.94.07,10.8.15,17.76.25,8.96.04,16.11.09,21.81.15,9.3.08,14.71.16,17.76.25h.18c.24,0,.91.02,1.81.01,3.69-.02,8.8-.94,14.49-3.3,6.15-2.55,9.37-5.35,10.92-6.79,5.47-5.12,9.67-10.25,6.52-18.04-2.48-6.13-8.9-11.22-14.35-10.49-1.49.2-4.94.81-7.24,1.66-3.73,1.39-6.18,2.8-7.27,3.38-2.81,1.48-6.38,2.23-13.58,2.45l-30.71-.3-17.89-.18"/>
        <ellipse class="cls-3" cx="43.81" cy="96.34" rx="5.98" ry="8.94" transform="translate(-55.07 134.07) rotate(-86.43)"/>
        <line class="cls-5" x1="54.14" y1="87.82" x2="52.59" y2="97.73"/>
        <line class="cls-5" x1="36.41" y1="87.5" x2="34.92" y2="95.45"/>
        <ellipse class="cls-7" cx="53.6" cy="68.67" rx=".65" ry=".62"/>
        <ellipse class="cls-7" cx="52.92" cy="74.08" rx=".65" ry=".62"/>
        <ellipse class="cls-7" cx="44.87" cy="68.01" rx=".65" ry=".62"/>
        <ellipse class="cls-7" cx="44.29" cy="73.32" rx=".65" ry=".62"/>
        <path class="cls-8" d="m58.39,56.89l-.21,30.97c-1.42-.01-2.77-.02-4.04-.04-9.3-.1-14.7-.12-17.77-.1h-.18c-.23,0-.91,0-1.8-.02-3.69-.1-8.78-1.11-14.42-3.58-6.09-2.68-9.26-5.53-10.77-7.01-5.36-5.22-9.45-10.43-6.13-18.15,2.61-6.08,9.14-11.05,14.57-10.2,1.49.22,4.93.88,7.21,1.79,3.69,1.46,6.11,2.92,7.19,3.52,2.78,1.55,6.33,2.35,13.52,2.72l12.83.12Z"/>
        <path class="cls-9" d="m48.05,1.59h20.26c.8,0,1.45.73,1.45,1.63v22.65c0,.32-.08.63-.24.89l-10.13,17.27c-.57.98-1.85.98-2.43,0l-10.13-17.25c-.16-.27-.24-.58-.24-.89V3.21c0-.9.65-1.63,1.45-1.63Z"/>
        <text class="cls-2" transform="translate(76.51 27.33) scale(.89 1)"><tspan x="0" y="0">40%</tspan></text>
      </g>
      <text class="cls-1" transform="translate(4.67 156.43) scale(.89 1)"><tspan x="0" y="0">Collecting </tspan><tspan x="30.87" y="25.76">status</tspan></text>
    </g>
  </g>
</svg>