<svg width="375" height="500" viewBox="0 0 375 500" fill="none" xmlns="http://www.w3.org/2000/svg">
<rect width="375" height="500" fill="white"/>
<rect x="17.5" y="33.5" width="340" height="35" fill="#F8FFF8" stroke="black"/>
<rect x="17.5" y="102.5" width="340" height="35" fill="#F8FFF8" stroke="black"/>
<rect x="17.5" y="171.5" width="340" height="35" fill="#F8FFF8" stroke="black"/>
<rect x="17.5" y="240.5" width="340" height="201" fill="#F8FFF8" stroke="black"/>
<rect x="119" y="450" width="136" height="42" rx="12" fill="#CDFFCD"/>
<path d="M24.5 21H23.408L19.016 14.34V21H17.924V12.624H19.016L23.408 19.272V12.624H24.5V21ZM25.9535 17.688C25.9535 17.016 26.0895 16.428 26.3615 15.924C26.6335 15.412 27.0055 15.016 27.4775 14.736C27.9575 14.456 28.4895 14.316 29.0735 14.316C29.6495 14.316 30.1495 14.44 30.5735 14.688C30.9975 14.936 31.3135 15.248 31.5215 15.624V14.424H32.6255V21H31.5215V19.776C31.3055 20.16 30.9815 20.48 30.5495 20.736C30.1255 20.984 29.6295 21.108 29.0615 21.108C28.4775 21.108 27.9495 20.964 27.4775 20.676C27.0055 20.388 26.6335 19.984 26.3615 19.464C26.0895 18.944 25.9535 18.352 25.9535 17.688ZM31.5215 17.7C31.5215 17.204 31.4215 16.772 31.2215 16.404C31.0215 16.036 30.7495 15.756 30.4055 15.564C30.0695 15.364 29.6975 15.264 29.2895 15.264C28.8815 15.264 28.5095 15.36 28.1735 15.552C27.8375 15.744 27.5695 16.024 27.3695 16.392C27.1695 16.76 27.0695 17.192 27.0695 17.688C27.0695 18.192 27.1695 18.632 27.3695 19.008C27.5695 19.376 27.8375 19.66 28.1735 19.86C28.5095 20.052 28.8815 20.148 29.2895 20.148C29.6975 20.148 30.0695 20.052 30.4055 19.86C30.7495 19.66 31.0215 19.376 31.2215 19.008C31.4215 18.632 31.5215 18.196 31.5215 17.7ZM42.3789 14.304C42.8909 14.304 43.3469 14.412 43.7469 14.628C44.1469 14.836 44.4629 15.152 44.6949 15.576C44.9269 16 45.0429 16.516 45.0429 17.124V21H43.9629V17.28C43.9629 16.624 43.7989 16.124 43.4709 15.78C43.1509 15.428 42.7149 15.252 42.1629 15.252C41.5949 15.252 41.1429 15.436 40.8069 15.804C40.4709 16.164 40.3029 16.688 40.3029 17.376V21H39.2229V17.28C39.2229 16.624 39.0589 16.124 38.7309 15.78C38.4109 15.428 37.9749 15.252 37.4229 15.252C36.8549 15.252 36.4029 15.436 36.0669 15.804C35.7309 16.164 35.5629 16.688 35.5629 17.376V21H34.4709V14.424H35.5629V15.372C35.7789 15.028 36.0669 14.764 36.4269 14.58C36.7949 14.396 37.1989 14.304 37.6389 14.304C38.1909 14.304 38.6789 14.428 39.1029 14.676C39.5269 14.924 39.8429 15.288 40.0509 15.768C40.2349 15.304 40.5389 14.944 40.9629 14.688C41.3869 14.432 41.8589 14.304 42.3789 14.304ZM52.8342 17.46C52.8342 17.668 52.8222 17.888 52.7982 18.12H47.5422C47.5822 18.768 47.8022 19.276 48.2022 19.644C48.6102 20.004 49.1022 20.184 49.6782 20.184C50.1502 20.184 50.5422 20.076 50.8542 19.86C51.1742 19.636 51.3982 19.34 51.5262 18.972H52.7022C52.5262 19.604 52.1742 20.12 51.6462 20.52C51.1182 20.912 50.4622 21.108 49.6782 21.108C49.0542 21.108 48.4942 20.968 47.9982 20.688C47.5102 20.408 47.1262 20.012 46.8462 19.5C46.5662 18.98 46.4262 18.38 46.4262 17.7C46.4262 17.02 46.5622 16.424 46.8342 15.912C47.1062 15.4 47.4862 15.008 47.9742 14.736C48.4702 14.456 49.0382 14.316 49.6782 14.316C50.3022 14.316 50.8542 14.452 51.3342 14.724C51.8142 14.996 52.1822 15.372 52.4382 15.852C52.7022 16.324 52.8342 16.86 52.8342 17.46ZM51.7062 17.232C51.7062 16.816 51.6142 16.46 51.4302 16.164C51.2462 15.86 50.9942 15.632 50.6742 15.48C50.3622 15.32 50.0142 15.24 49.6302 15.24C49.0782 15.24 48.6062 15.416 48.2142 15.768C47.8302 16.12 47.6102 16.608 47.5542 17.232H51.7062ZM54.6236 21.072C54.4156 21.072 54.2396 21 54.0956 20.856C53.9516 20.712 53.8796 20.536 53.8796 20.328C53.8796 20.12 53.9516 19.944 54.0956 19.8C54.2396 19.656 54.4156 19.584 54.6236 19.584C54.8236 19.584 54.9916 19.656 55.1276 19.8C55.2716 19.944 55.3436 20.12 55.3436 20.328C55.3436 20.536 55.2716 20.712 55.1276 20.856C54.9916 21 54.8236 21.072 54.6236 21.072ZM54.6236 15.936C54.4156 15.936 54.2396 15.864 54.0956 15.72C53.9516 15.576 53.8796 15.4 53.8796 15.192C53.8796 14.984 53.9516 14.808 54.0956 14.664C54.2396 14.52 54.4156 14.448 54.6236 14.448C54.8236 14.448 54.9916 14.52 55.1276 14.664C55.2716 14.808 55.3436 14.984 55.3436 15.192C55.3436 15.4 55.2716 15.576 55.1276 15.72C54.9916 15.864 54.8236 15.936 54.6236 15.936ZM63.7495 12.96L64.1815 13.74L62.5135 14.436L64.1935 15.12L63.7375 15.924L62.2855 14.868L62.4775 16.68H61.5775L61.7575 14.868L60.3055 15.936L59.8375 15.12L61.5055 14.424L59.8375 13.752L60.2815 12.948L61.7695 14.016L61.5775 12.192H62.4895L62.2855 14.016L63.7495 12.96Z" fill="black"/>
<path d="M26.408 219.696V228H25.316V221.808L22.556 228H21.788L19.016 221.796V228H17.924V219.696H19.1L22.172 226.56L25.244 219.696H26.408ZM34.2599 224.46C34.2599 224.668 34.2479 224.888 34.2239 225.12H28.9679C29.0079 225.768 29.2279 226.276 29.6279 226.644C30.0359 227.004 30.5279 227.184 31.1039 227.184C31.5759 227.184 31.9679 227.076 32.2799 226.86C32.5999 226.636 32.8239 226.34 32.9519 225.972H34.1279C33.9519 226.604 33.5999 227.12 33.0719 227.52C32.5439 227.912 31.8879 228.108 31.1039 228.108C30.4799 228.108 29.9199 227.968 29.4239 227.688C28.9359 227.408 28.5519 227.012 28.2719 226.5C27.9919 225.98 27.8519 225.38 27.8519 224.7C27.8519 224.02 27.9879 223.424 28.2599 222.912C28.5319 222.4 28.9119 222.008 29.3999 221.736C29.8959 221.456 30.4639 221.316 31.1039 221.316C31.7279 221.316 32.2799 221.452 32.7599 221.724C33.2399 221.996 33.6079 222.372 33.8639 222.852C34.1279 223.324 34.2599 223.86 34.2599 224.46ZM33.1319 224.232C33.1319 223.816 33.0399 223.46 32.8559 223.164C32.6719 222.86 32.4199 222.632 32.0999 222.48C31.7879 222.32 31.4399 222.24 31.0559 222.24C30.5039 222.24 30.0319 222.416 29.6399 222.768C29.2559 223.12 29.0359 223.608 28.9799 224.232H33.1319ZM38.0293 228.108C37.5253 228.108 37.0733 228.024 36.6733 227.856C36.2733 227.68 35.9573 227.44 35.7253 227.136C35.4933 226.824 35.3653 226.468 35.3413 226.068H36.4693C36.5013 226.396 36.6533 226.664 36.9253 226.872C37.2053 227.08 37.5693 227.184 38.0173 227.184C38.4333 227.184 38.7613 227.092 39.0013 226.908C39.2413 226.724 39.3613 226.492 39.3613 226.212C39.3613 225.924 39.2333 225.712 38.9773 225.576C38.7213 225.432 38.3253 225.292 37.7893 225.156C37.3013 225.028 36.9013 224.9 36.5893 224.772C36.2853 224.636 36.0213 224.44 35.7973 224.184C35.5813 223.92 35.4733 223.576 35.4733 223.152C35.4733 222.816 35.5733 222.508 35.7733 222.228C35.9733 221.948 36.2573 221.728 36.6253 221.568C36.9933 221.4 37.4133 221.316 37.8853 221.316C38.6133 221.316 39.2013 221.5 39.6493 221.868C40.0973 222.236 40.3373 222.74 40.3693 223.38H39.2773C39.2533 223.036 39.1133 222.76 38.8573 222.552C38.6093 222.344 38.2733 222.24 37.8493 222.24C37.4573 222.24 37.1453 222.324 36.9133 222.492C36.6813 222.66 36.5653 222.88 36.5653 223.152C36.5653 223.368 36.6333 223.548 36.7693 223.692C36.9133 223.828 37.0893 223.94 37.2973 224.028C37.5133 224.108 37.8093 224.2 38.1853 224.304C38.6573 224.432 39.0413 224.56 39.3373 224.688C39.6333 224.808 39.8853 224.992 40.0933 225.24C40.3093 225.488 40.4213 225.812 40.4293 226.212C40.4293 226.572 40.3293 226.896 40.1293 227.184C39.9293 227.472 39.6453 227.7 39.2773 227.868C38.9173 228.028 38.5013 228.108 38.0293 228.108ZM44.2989 228.108C43.7949 228.108 43.3429 228.024 42.9429 227.856C42.5429 227.68 42.2269 227.44 41.9949 227.136C41.7629 226.824 41.6349 226.468 41.6109 226.068H42.7389C42.7709 226.396 42.9229 226.664 43.1949 226.872C43.4749 227.08 43.8389 227.184 44.2869 227.184C44.7029 227.184 45.0309 227.092 45.2709 226.908C45.5109 226.724 45.6309 226.492 45.6309 226.212C45.6309 225.924 45.5029 225.712 45.2469 225.576C44.9909 225.432 44.5949 225.292 44.0589 225.156C43.5709 225.028 43.1709 224.9 42.8589 224.772C42.5549 224.636 42.2909 224.44 42.0669 224.184C41.8509 223.92 41.7429 223.576 41.7429 223.152C41.7429 222.816 41.8429 222.508 42.0429 222.228C42.2429 221.948 42.5269 221.728 42.8949 221.568C43.2629 221.4 43.6829 221.316 44.1549 221.316C44.8829 221.316 45.4709 221.5 45.9189 221.868C46.3669 222.236 46.6069 222.74 46.6389 223.38H45.5469C45.5229 223.036 45.3829 222.76 45.1269 222.552C44.8789 222.344 44.5429 222.24 44.1189 222.24C43.7269 222.24 43.4149 222.324 43.1829 222.492C42.9509 222.66 42.8349 222.88 42.8349 223.152C42.8349 223.368 42.9029 223.548 43.0389 223.692C43.1829 223.828 43.3589 223.94 43.5669 224.028C43.7829 224.108 44.0789 224.2 44.4549 224.304C44.9269 224.432 45.3109 224.56 45.6069 224.688C45.9029 224.808 46.1549 224.992 46.3629 225.24C46.5789 225.488 46.6909 225.812 46.6989 226.212C46.6989 226.572 46.5989 226.896 46.3989 227.184C46.1989 227.472 45.9149 227.7 45.5469 227.868C45.1869 228.028 44.7709 228.108 44.2989 228.108ZM47.8324 224.688C47.8324 224.016 47.9684 223.428 48.2404 222.924C48.5124 222.412 48.8844 222.016 49.3564 221.736C49.8364 221.456 50.3684 221.316 50.9524 221.316C51.5284 221.316 52.0284 221.44 52.4524 221.688C52.8764 221.936 53.1924 222.248 53.4004 222.624V221.424H54.5044V228H53.4004V226.776C53.1844 227.16 52.8604 227.48 52.4284 227.736C52.0044 227.984 51.5084 228.108 50.9404 228.108C50.3564 228.108 49.8284 227.964 49.3564 227.676C48.8844 227.388 48.5124 226.984 48.2404 226.464C47.9684 225.944 47.8324 225.352 47.8324 224.688ZM53.4004 224.7C53.4004 224.204 53.3004 223.772 53.1004 223.404C52.9004 223.036 52.6284 222.756 52.2844 222.564C51.9484 222.364 51.5764 222.264 51.1684 222.264C50.7604 222.264 50.3884 222.36 50.0524 222.552C49.7164 222.744 49.4484 223.024 49.2484 223.392C49.0484 223.76 48.9484 224.192 48.9484 224.688C48.9484 225.192 49.0484 225.632 49.2484 226.008C49.4484 226.376 49.7164 226.66 50.0524 226.86C50.3884 227.052 50.7604 227.148 51.1684 227.148C51.5764 227.148 51.9484 227.052 52.2844 226.86C52.6284 226.66 52.9004 226.376 53.1004 226.008C53.3004 225.632 53.4004 225.196 53.4004 224.7ZM59.0618 221.316C59.6298 221.316 60.1258 221.44 60.5498 221.688C60.9818 221.936 61.3018 222.248 61.5098 222.624V221.424H62.6138V228.144C62.6138 228.744 62.4858 229.276 62.2298 229.74C61.9738 230.212 61.6058 230.58 61.1258 230.844C60.6538 231.108 60.1018 231.24 59.4698 231.24C58.6058 231.24 57.8858 231.036 57.3098 230.628C56.7338 230.22 56.3938 229.664 56.2898 228.96H57.3698C57.4898 229.36 57.7378 229.68 58.1138 229.92C58.4898 230.168 58.9418 230.292 59.4698 230.292C60.0698 230.292 60.5578 230.104 60.9338 229.728C61.3178 229.352 61.5098 228.824 61.5098 228.144V226.764C61.2938 227.148 60.9738 227.468 60.5498 227.724C60.1258 227.98 59.6298 228.108 59.0618 228.108C58.4778 228.108 57.9458 227.964 57.4658 227.676C56.9938 227.388 56.6218 226.984 56.3498 226.464C56.0778 225.944 55.9418 225.352 55.9418 224.688C55.9418 224.016 56.0778 223.428 56.3498 222.924C56.6218 222.412 56.9938 222.016 57.4658 221.736C57.9458 221.456 58.4778 221.316 59.0618 221.316ZM61.5098 224.7C61.5098 224.204 61.4098 223.772 61.2098 223.404C61.0098 223.036 60.7378 222.756 60.3938 222.564C60.0578 222.364 59.6858 222.264 59.2778 222.264C58.8698 222.264 58.4978 222.36 58.1618 222.552C57.8258 222.744 57.5578 223.024 57.3578 223.392C57.1578 223.76 57.0578 224.192 57.0578 224.688C57.0578 225.192 57.1578 225.632 57.3578 226.008C57.5578 226.376 57.8258 226.66 58.1618 226.86C58.4978 227.052 58.8698 227.148 59.2778 227.148C59.6858 227.148 60.0578 227.052 60.3938 226.86C60.7378 226.66 61.0098 226.376 61.2098 226.008C61.4098 225.632 61.5098 225.196 61.5098 224.7ZM70.4592 224.46C70.4592 224.668 70.4472 224.888 70.4232 225.12H65.1672C65.2072 225.768 65.4272 226.276 65.8272 226.644C66.2352 227.004 66.7272 227.184 67.3032 227.184C67.7752 227.184 68.1672 227.076 68.4792 226.86C68.7992 226.636 69.0232 226.34 69.1512 225.972H70.3272C70.1512 226.604 69.7992 227.12 69.2712 227.52C68.7432 227.912 68.0872 228.108 67.3032 228.108C66.6792 228.108 66.1192 227.968 65.6232 227.688C65.1352 227.408 64.7512 227.012 64.4712 226.5C64.1912 225.98 64.0512 225.38 64.0512 224.7C64.0512 224.02 64.1872 223.424 64.4592 222.912C64.7312 222.4 65.1112 222.008 65.5992 221.736C66.0952 221.456 66.6632 221.316 67.3032 221.316C67.9272 221.316 68.4792 221.452 68.9592 221.724C69.4392 221.996 69.8072 222.372 70.0632 222.852C70.3272 223.324 70.4592 223.86 70.4592 224.46ZM69.3312 224.232C69.3312 223.816 69.2392 223.46 69.0552 223.164C68.8712 222.86 68.6192 222.632 68.2992 222.48C67.9872 222.32 67.6392 222.24 67.2552 222.24C66.7032 222.24 66.2312 222.416 65.8392 222.768C65.4552 223.12 65.2352 223.608 65.1792 224.232H69.3312ZM72.2486 228.072C72.0406 228.072 71.8646 228 71.7206 227.856C71.5766 227.712 71.5046 227.536 71.5046 227.328C71.5046 227.12 71.5766 226.944 71.7206 226.8C71.8646 226.656 72.0406 226.584 72.2486 226.584C72.4486 226.584 72.6166 226.656 72.7526 226.8C72.8966 226.944 72.9686 227.12 72.9686 227.328C72.9686 227.536 72.8966 227.712 72.7526 227.856C72.6166 228 72.4486 228.072 72.2486 228.072ZM72.2486 222.936C72.0406 222.936 71.8646 222.864 71.7206 222.72C71.5766 222.576 71.5046 222.4 71.5046 222.192C71.5046 221.984 71.5766 221.808 71.7206 221.664C71.8646 221.52 72.0406 221.448 72.2486 221.448C72.4486 221.448 72.6166 221.52 72.7526 221.664C72.8966 221.808 72.9686 221.984 72.9686 222.192C72.9686 222.4 72.8966 222.576 72.7526 222.72C72.6166 222.864 72.4486 222.936 72.2486 222.936ZM81.3745 219.96L81.8065 220.74L80.1385 221.436L81.8185 222.12L81.3625 222.924L79.9105 221.868L80.1025 223.68H79.2025L79.3825 221.868L77.9305 222.936L77.4625 222.12L79.1305 221.424L77.4625 220.752L77.9065 219.948L79.3945 221.016L79.2025 219.192H80.1145L79.9105 221.016L81.3745 219.96Z" fill="black"/>
<path d="M23.516 153.084C23.516 153.78 23.276 154.36 22.796 154.824C22.324 155.28 21.6 155.508 20.624 155.508H19.016V159H17.924V150.636H20.624C21.568 150.636 22.284 150.864 22.772 151.32C23.268 151.776 23.516 152.364 23.516 153.084ZM20.624 154.608C21.232 154.608 21.68 154.476 21.968 154.212C22.256 153.948 22.4 153.572 22.4 153.084C22.4 152.052 21.808 151.536 20.624 151.536H19.016V154.608H20.624ZM28.1372 152.304C28.6332 152.304 29.0812 152.412 29.4812 152.628C29.8812 152.836 30.1932 153.152 30.4172 153.576C30.6492 154 30.7652 154.516 30.7652 155.124V159H29.6852V155.28C29.6852 154.624 29.5212 154.124 29.1932 153.78C28.8652 153.428 28.4172 153.252 27.8492 153.252C27.2732 153.252 26.8132 153.432 26.4692 153.792C26.1332 154.152 25.9652 154.676 25.9652 155.364V159H24.8732V150.12H25.9652V153.36C26.1812 153.024 26.4772 152.764 26.8532 152.58C27.2372 152.396 27.6652 152.304 28.1372 152.304ZM35.417 159.108C34.801 159.108 34.241 158.968 33.737 158.688C33.241 158.408 32.849 158.012 32.561 157.5C32.281 156.98 32.141 156.38 32.141 155.7C32.141 155.028 32.285 154.436 32.573 153.924C32.869 153.404 33.269 153.008 33.773 152.736C34.277 152.456 34.841 152.316 35.465 152.316C36.089 152.316 36.653 152.456 37.157 152.736C37.661 153.008 38.057 153.4 38.345 153.912C38.641 154.424 38.789 155.02 38.789 155.7C38.789 156.38 38.637 156.98 38.333 157.5C38.037 158.012 37.633 158.408 37.121 158.688C36.609 158.968 36.041 159.108 35.417 159.108ZM35.417 158.148C35.809 158.148 36.177 158.056 36.521 157.872C36.865 157.688 37.141 157.412 37.349 157.044C37.565 156.676 37.673 156.228 37.673 155.7C37.673 155.172 37.569 154.724 37.361 154.356C37.153 153.988 36.881 153.716 36.545 153.54C36.209 153.356 35.845 153.264 35.453 153.264C35.053 153.264 34.685 153.356 34.349 153.54C34.021 153.716 33.757 153.988 33.557 154.356C33.357 154.724 33.257 155.172 33.257 155.7C33.257 156.236 33.353 156.688 33.545 157.056C33.745 157.424 34.009 157.7 34.337 157.884C34.665 158.06 35.025 158.148 35.417 158.148ZM43.4288 152.304C44.2288 152.304 44.8768 152.548 45.3728 153.036C45.8688 153.516 46.1168 154.212 46.1168 155.124V159H45.0368V155.28C45.0368 154.624 44.8728 154.124 44.5448 153.78C44.2168 153.428 43.7688 153.252 43.2008 153.252C42.6248 153.252 42.1648 153.432 41.8208 153.792C41.4848 154.152 41.3168 154.676 41.3168 155.364V159H40.2248V152.424H41.3168V153.36C41.5328 153.024 41.8248 152.764 42.1928 152.58C42.5688 152.396 42.9808 152.304 43.4288 152.304ZM53.9006 155.46C53.9006 155.668 53.8886 155.888 53.8646 156.12H48.6086C48.6486 156.768 48.8686 157.276 49.2686 157.644C49.6766 158.004 50.1686 158.184 50.7446 158.184C51.2166 158.184 51.6086 158.076 51.9206 157.86C52.2406 157.636 52.4646 157.34 52.5926 156.972H53.7686C53.5926 157.604 53.2406 158.12 52.7126 158.52C52.1846 158.912 51.5286 159.108 50.7446 159.108C50.1206 159.108 49.5606 158.968 49.0646 158.688C48.5766 158.408 48.1926 158.012 47.9126 157.5C47.6326 156.98 47.4926 156.38 47.4926 155.7C47.4926 155.02 47.6286 154.424 47.9006 153.912C48.1726 153.4 48.5526 153.008 49.0406 152.736C49.5366 152.456 50.1046 152.316 50.7446 152.316C51.3686 152.316 51.9206 152.452 52.4006 152.724C52.8806 152.996 53.2486 153.372 53.5046 153.852C53.7686 154.324 53.9006 154.86 53.9006 155.46ZM52.7726 155.232C52.7726 154.816 52.6806 154.46 52.4966 154.164C52.3126 153.86 52.0606 153.632 51.7406 153.48C51.4286 153.32 51.0806 153.24 50.6966 153.24C50.1446 153.24 49.6726 153.416 49.2806 153.768C48.8966 154.12 48.6766 154.608 48.6206 155.232H52.7726ZM55.69 159.072C55.482 159.072 55.306 159 55.162 158.856C55.018 158.712 54.946 158.536 54.946 158.328C54.946 158.12 55.018 157.944 55.162 157.8C55.306 157.656 55.482 157.584 55.69 157.584C55.89 157.584 56.058 157.656 56.194 157.8C56.338 157.944 56.41 158.12 56.41 158.328C56.41 158.536 56.338 158.712 56.194 158.856C56.058 159 55.89 159.072 55.69 159.072ZM55.69 153.936C55.482 153.936 55.306 153.864 55.162 153.72C55.018 153.576 54.946 153.4 54.946 153.192C54.946 152.984 55.018 152.808 55.162 152.664C55.306 152.52 55.482 152.448 55.69 152.448C55.89 152.448 56.058 152.52 56.194 152.664C56.338 152.808 56.41 152.984 56.41 153.192C56.41 153.4 56.338 153.576 56.194 153.72C56.058 153.864 55.89 153.936 55.69 153.936Z" fill="black"/>
<path d="M19.016 82.524V85.32H22.064V86.22H19.016V89.1H22.424V90H17.924V81.624H22.424V82.524H19.016ZM28.6363 85.14V86.064H23.8483V85.14H28.6363ZM38.5937 83.304C39.1057 83.304 39.5617 83.412 39.9617 83.628C40.3617 83.836 40.6777 84.152 40.9097 84.576C41.1417 85 41.2577 85.516 41.2577 86.124V90H40.1777V86.28C40.1777 85.624 40.0137 85.124 39.6857 84.78C39.3657 84.428 38.9297 84.252 38.3777 84.252C37.8097 84.252 37.3577 84.436 37.0217 84.804C36.6857 85.164 36.5177 85.688 36.5177 86.376V90H35.4377V86.28C35.4377 85.624 35.2737 85.124 34.9457 84.78C34.6257 84.428 34.1897 84.252 33.6377 84.252C33.0697 84.252 32.6177 84.436 32.2817 84.804C31.9457 85.164 31.7777 85.688 31.7777 86.376V90H30.6857V83.424H31.7777V84.372C31.9937 84.028 32.2817 83.764 32.6417 83.58C33.0097 83.396 33.4137 83.304 33.8537 83.304C34.4057 83.304 34.8937 83.428 35.3177 83.676C35.7417 83.924 36.0577 84.288 36.2657 84.768C36.4497 84.304 36.7537 83.944 37.1777 83.688C37.6017 83.432 38.0737 83.304 38.5937 83.304ZM42.641 86.688C42.641 86.016 42.777 85.428 43.049 84.924C43.321 84.412 43.693 84.016 44.165 83.736C44.645 83.456 45.177 83.316 45.761 83.316C46.337 83.316 46.837 83.44 47.261 83.688C47.685 83.936 48.001 84.248 48.209 84.624V83.424H49.313V90H48.209V88.776C47.993 89.16 47.669 89.48 47.237 89.736C46.813 89.984 46.317 90.108 45.749 90.108C45.165 90.108 44.637 89.964 44.165 89.676C43.693 89.388 43.321 88.984 43.049 88.464C42.777 87.944 42.641 87.352 42.641 86.688ZM48.209 86.7C48.209 86.204 48.109 85.772 47.909 85.404C47.709 85.036 47.437 84.756 47.093 84.564C46.757 84.364 46.385 84.264 45.977 84.264C45.569 84.264 45.197 84.36 44.861 84.552C44.525 84.744 44.257 85.024 44.057 85.392C43.857 85.76 43.757 86.192 43.757 86.688C43.757 87.192 43.857 87.632 44.057 88.008C44.257 88.376 44.525 88.66 44.861 88.86C45.197 89.052 45.569 89.148 45.977 89.148C46.385 89.148 46.757 89.052 47.093 88.86C47.437 88.66 47.709 88.376 47.909 88.008C48.109 87.632 48.209 87.196 48.209 86.7ZM51.7224 82.356C51.5144 82.356 51.3384 82.284 51.1944 82.14C51.0504 81.996 50.9784 81.82 50.9784 81.612C50.9784 81.404 51.0504 81.228 51.1944 81.084C51.3384 80.94 51.5144 80.868 51.7224 80.868C51.9224 80.868 52.0904 80.94 52.2264 81.084C52.3704 81.228 52.4424 81.404 52.4424 81.612C52.4424 81.82 52.3704 81.996 52.2264 82.14C52.0904 82.284 51.9224 82.356 51.7224 82.356ZM52.2504 83.424V90H51.1584V83.424H52.2504ZM55.2035 81.12V90H54.1115V81.12H55.2035ZM57.4126 90.072C57.2046 90.072 57.0286 90 56.8846 89.856C56.7406 89.712 56.6686 89.536 56.6686 89.328C56.6686 89.12 56.7406 88.944 56.8846 88.8C57.0286 88.656 57.2046 88.584 57.4126 88.584C57.6126 88.584 57.7806 88.656 57.9166 88.8C58.0606 88.944 58.1326 89.12 58.1326 89.328C58.1326 89.536 58.0606 89.712 57.9166 89.856C57.7806 90 57.6126 90.072 57.4126 90.072ZM57.4126 84.936C57.2046 84.936 57.0286 84.864 56.8846 84.72C56.7406 84.576 56.6686 84.4 56.6686 84.192C56.6686 83.984 56.7406 83.808 56.8846 83.664C57.0286 83.52 57.2046 83.448 57.4126 83.448C57.6126 83.448 57.7806 83.52 57.9166 83.664C58.0606 83.808 58.1326 83.984 58.1326 84.192C58.1326 84.4 58.0606 84.576 57.9166 84.72C57.7806 84.864 57.6126 84.936 57.4126 84.936ZM66.5385 81.96L66.9705 82.74L65.3025 83.436L66.9825 84.12L66.5265 84.924L65.0745 83.868L65.2665 85.68H64.3665L64.5465 83.868L63.0945 84.936L62.6265 84.12L64.2945 83.424L62.6265 82.752L63.0705 81.948L64.5585 83.016L64.3665 81.192H65.2785L65.0745 83.016L66.5385 81.96Z" fill="black"/>
<path d="M157.53 478.14C156.61 478.14 155.784 477.98 155.05 477.66C154.33 477.327 153.764 476.873 153.35 476.3C152.937 475.713 152.724 475.04 152.71 474.28H154.65C154.717 474.933 154.984 475.487 155.45 475.94C155.93 476.38 156.624 476.6 157.53 476.6C158.397 476.6 159.077 476.387 159.57 475.96C160.077 475.52 160.33 474.96 160.33 474.28C160.33 473.747 160.184 473.313 159.89 472.98C159.597 472.647 159.23 472.393 158.79 472.22C158.35 472.047 157.757 471.86 157.01 471.66C156.09 471.42 155.35 471.18 154.79 470.94C154.244 470.7 153.77 470.327 153.37 469.82C152.984 469.3 152.79 468.607 152.79 467.74C152.79 466.98 152.984 466.307 153.37 465.72C153.757 465.133 154.297 464.68 154.99 464.36C155.697 464.04 156.504 463.88 157.41 463.88C158.717 463.88 159.784 464.207 160.61 464.86C161.45 465.513 161.924 466.38 162.03 467.46H160.03C159.964 466.927 159.684 466.46 159.19 466.06C158.697 465.647 158.044 465.44 157.23 465.44C156.47 465.44 155.85 465.64 155.37 466.04C154.89 466.427 154.65 466.973 154.65 467.68C154.65 468.187 154.79 468.6 155.07 468.92C155.364 469.24 155.717 469.487 156.13 469.66C156.557 469.82 157.15 470.007 157.91 470.22C158.83 470.473 159.57 470.727 160.13 470.98C160.69 471.22 161.17 471.6 161.57 472.12C161.97 472.627 162.17 473.32 162.17 474.2C162.17 474.88 161.99 475.52 161.63 476.12C161.27 476.72 160.737 477.207 160.03 477.58C159.324 477.953 158.49 478.14 157.53 478.14ZM174.569 467.04V478H172.749V476.38C172.402 476.94 171.915 477.38 171.289 477.7C170.675 478.007 169.995 478.16 169.249 478.16C168.395 478.16 167.629 477.987 166.949 477.64C166.269 477.28 165.729 476.747 165.329 476.04C164.942 475.333 164.749 474.473 164.749 473.46V467.04H166.549V473.22C166.549 474.3 166.822 475.133 167.369 475.72C167.915 476.293 168.662 476.58 169.609 476.58C170.582 476.58 171.349 476.28 171.909 475.68C172.469 475.08 172.749 474.207 172.749 473.06V467.04H174.569ZM179.462 469.08C179.835 468.427 180.382 467.893 181.102 467.48C181.822 467.067 182.642 466.86 183.562 466.86C184.548 466.86 185.435 467.093 186.222 467.56C187.008 468.027 187.628 468.687 188.082 469.54C188.535 470.38 188.762 471.36 188.762 472.48C188.762 473.587 188.535 474.573 188.082 475.44C187.628 476.307 187.002 476.98 186.202 477.46C185.415 477.94 184.535 478.18 183.562 478.18C182.615 478.18 181.782 477.973 181.062 477.56C180.355 477.147 179.822 476.62 179.462 475.98V478H177.642V463.2H179.462V469.08ZM186.902 472.48C186.902 471.653 186.735 470.933 186.402 470.32C186.068 469.707 185.615 469.24 185.042 468.92C184.482 468.6 183.862 468.44 183.182 468.44C182.515 468.44 181.895 468.607 181.322 468.94C180.762 469.26 180.308 469.733 179.962 470.36C179.628 470.973 179.462 471.687 179.462 472.5C179.462 473.327 179.628 474.053 179.962 474.68C180.308 475.293 180.762 475.767 181.322 476.1C181.895 476.42 182.515 476.58 183.182 476.58C183.862 476.58 184.482 476.42 185.042 476.1C185.615 475.767 186.068 475.293 186.402 474.68C186.735 474.053 186.902 473.32 186.902 472.48ZM204.337 466.84C205.191 466.84 205.951 467.02 206.617 467.38C207.284 467.727 207.811 468.253 208.197 468.96C208.584 469.667 208.777 470.527 208.777 471.54V478H206.977V471.8C206.977 470.707 206.704 469.873 206.157 469.3C205.624 468.713 204.897 468.42 203.977 468.42C203.031 468.42 202.277 468.727 201.717 469.34C201.157 469.94 200.877 470.813 200.877 471.96V478H199.077V471.8C199.077 470.707 198.804 469.873 198.257 469.3C197.724 468.713 196.997 468.42 196.077 468.42C195.131 468.42 194.377 468.727 193.817 469.34C193.257 469.94 192.977 470.813 192.977 471.96V478H191.157V467.04H192.977V468.62C193.337 468.047 193.817 467.607 194.417 467.3C195.031 466.993 195.704 466.84 196.437 466.84C197.357 466.84 198.171 467.047 198.877 467.46C199.584 467.873 200.111 468.48 200.457 469.28C200.764 468.507 201.271 467.907 201.977 467.48C202.684 467.053 203.471 466.84 204.337 466.84ZM212.703 465.26C212.356 465.26 212.063 465.14 211.823 464.9C211.583 464.66 211.463 464.367 211.463 464.02C211.463 463.673 211.583 463.38 211.823 463.14C212.063 462.9 212.356 462.78 212.703 462.78C213.036 462.78 213.316 462.9 213.543 463.14C213.783 463.38 213.903 463.673 213.903 464.02C213.903 464.367 213.783 464.66 213.543 464.9C213.316 465.14 213.036 465.26 212.703 465.26ZM213.583 467.04V478H211.763V467.04H213.583ZM218.905 468.54V475C218.905 475.533 219.018 475.913 219.245 476.14C219.471 476.353 219.865 476.46 220.425 476.46H221.765V478H220.125C219.111 478 218.351 477.767 217.845 477.3C217.338 476.833 217.085 476.067 217.085 475V468.54H215.665V467.04H217.085V464.28H218.905V467.04H221.765V468.54H218.905Z" fill="black"/>
<path opacity="0.5" d="M29.7732 46.636V47.524H27.4932V55H26.4012V47.524H24.1092V46.636H29.7732ZM36.7814 48.424L32.8214 58.096H31.6934L32.9894 54.928L30.3374 48.424H31.5494L33.6134 53.752L35.6534 48.424H36.7814ZM38.9711 49.636C39.1871 49.26 39.5071 48.948 39.9311 48.7C40.3631 48.444 40.8631 48.316 41.4311 48.316C42.0151 48.316 42.5431 48.456 43.0151 48.736C43.4951 49.016 43.8711 49.412 44.1431 49.924C44.4151 50.428 44.5511 51.016 44.5511 51.688C44.5511 52.352 44.4151 52.944 44.1431 53.464C43.8711 53.984 43.4951 54.388 43.0151 54.676C42.5431 54.964 42.0151 55.108 41.4311 55.108C40.8711 55.108 40.3751 54.984 39.9431 54.736C39.5191 54.48 39.1951 54.164 38.9711 53.788V58.12H37.8791V48.424H38.9711V49.636ZM43.4351 51.688C43.4351 51.192 43.3351 50.76 43.1351 50.392C42.9351 50.024 42.6631 49.744 42.3191 49.552C41.9831 49.36 41.6111 49.264 41.2031 49.264C40.8031 49.264 40.4311 49.364 40.0871 49.564C39.7511 49.756 39.4791 50.04 39.2711 50.416C39.0711 50.784 38.9711 51.212 38.9711 51.7C38.9711 52.196 39.0711 52.632 39.2711 53.008C39.4791 53.376 39.7511 53.66 40.0871 53.86C40.4311 54.052 40.8031 54.148 41.2031 54.148C41.6111 54.148 41.9831 54.052 42.3191 53.86C42.6631 53.66 42.9351 53.376 43.1351 53.008C43.3351 52.632 43.4351 52.192 43.4351 51.688ZM51.9885 51.46C51.9885 51.668 51.9765 51.888 51.9525 52.12H46.6965C46.7365 52.768 46.9565 53.276 47.3565 53.644C47.7645 54.004 48.2565 54.184 48.8325 54.184C49.3045 54.184 49.6965 54.076 50.0085 53.86C50.3285 53.636 50.5525 53.34 50.6805 52.972H51.8565C51.6805 53.604 51.3285 54.12 50.8005 54.52C50.2725 54.912 49.6165 55.108 48.8325 55.108C48.2085 55.108 47.6485 54.968 47.1525 54.688C46.6645 54.408 46.2805 54.012 46.0005 53.5C45.7205 52.98 45.5805 52.38 45.5805 51.7C45.5805 51.02 45.7165 50.424 45.9885 49.912C46.2605 49.4 46.6405 49.008 47.1285 48.736C47.6245 48.456 48.1925 48.316 48.8325 48.316C49.4565 48.316 50.0085 48.452 50.4885 48.724C50.9685 48.996 51.3365 49.372 51.5925 49.852C51.8565 50.324 51.9885 50.86 51.9885 51.46ZM50.8605 51.232C50.8605 50.816 50.7685 50.46 50.5845 50.164C50.4005 49.86 50.1485 49.632 49.8285 49.48C49.5165 49.32 49.1685 49.24 48.7845 49.24C48.2325 49.24 47.7605 49.416 47.3685 49.768C46.9845 50.12 46.7645 50.608 46.7085 51.232H50.8605ZM59.8931 48.304C60.3891 48.304 60.8371 48.412 61.2371 48.628C61.6371 48.836 61.9491 49.152 62.1731 49.576C62.4051 50 62.5211 50.516 62.5211 51.124V55H61.4411V51.28C61.4411 50.624 61.2771 50.124 60.9491 49.78C60.6211 49.428 60.1731 49.252 59.6051 49.252C59.0291 49.252 58.5691 49.432 58.2251 49.792C57.8891 50.152 57.7211 50.676 57.7211 51.364V55H56.6291V46.12H57.7211V49.36C57.9371 49.024 58.2331 48.764 58.6091 48.58C58.9931 48.396 59.4211 48.304 59.8931 48.304ZM70.3049 51.46C70.3049 51.668 70.2929 51.888 70.2689 52.12H65.0129C65.0529 52.768 65.2729 53.276 65.6729 53.644C66.0809 54.004 66.5729 54.184 67.1489 54.184C67.6209 54.184 68.0129 54.076 68.3249 53.86C68.6449 53.636 68.8689 53.34 68.9969 52.972H70.1729C69.9969 53.604 69.6449 54.12 69.1169 54.52C68.5889 54.912 67.9329 55.108 67.1489 55.108C66.5249 55.108 65.9649 54.968 65.4689 54.688C64.9809 54.408 64.5969 54.012 64.3169 53.5C64.0369 52.98 63.8969 52.38 63.8969 51.7C63.8969 51.02 64.0329 50.424 64.3049 49.912C64.5769 49.4 64.9569 49.008 65.4449 48.736C65.9409 48.456 66.5089 48.316 67.1489 48.316C67.7729 48.316 68.3249 48.452 68.8049 48.724C69.2849 48.996 69.6529 49.372 69.9089 49.852C70.1729 50.324 70.3049 50.86 70.3049 51.46ZM69.1769 51.232C69.1769 50.816 69.0849 50.46 68.9009 50.164C68.7169 49.86 68.4649 49.632 68.1449 49.48C67.8329 49.32 67.4849 49.24 67.1009 49.24C66.5489 49.24 66.0769 49.416 65.6849 49.768C65.3009 50.12 65.0809 50.608 65.0249 51.232H69.1769ZM72.8383 49.492C73.0303 49.116 73.3023 48.824 73.6543 48.616C74.0143 48.408 74.4503 48.304 74.9623 48.304V49.432H74.6743C73.4503 49.432 72.8383 50.096 72.8383 51.424V55H71.7463V48.424H72.8383V49.492ZM82.2228 51.46C82.2228 51.668 82.2108 51.888 82.1868 52.12H76.9308C76.9708 52.768 77.1908 53.276 77.5908 53.644C77.9988 54.004 78.4908 54.184 79.0668 54.184C79.5388 54.184 79.9308 54.076 80.2428 53.86C80.5628 53.636 80.7868 53.34 80.9148 52.972H82.0908C81.9148 53.604 81.5628 54.12 81.0348 54.52C80.5068 54.912 79.8508 55.108 79.0668 55.108C78.4428 55.108 77.8828 54.968 77.3868 54.688C76.8988 54.408 76.5148 54.012 76.2348 53.5C75.9548 52.98 75.8148 52.38 75.8148 51.7C75.8148 51.02 75.9508 50.424 76.2228 49.912C76.4948 49.4 76.8748 49.008 77.3628 48.736C77.8588 48.456 78.4268 48.316 79.0668 48.316C79.6908 48.316 80.2428 48.452 80.7228 48.724C81.2028 48.996 81.5708 49.372 81.8268 49.852C82.0908 50.324 82.2228 50.86 82.2228 51.46ZM81.0948 51.232C81.0948 50.816 81.0028 50.46 80.8188 50.164C80.6348 49.86 80.3828 49.632 80.0628 49.48C79.7508 49.32 79.4028 49.24 79.0188 49.24C78.4668 49.24 77.9948 49.416 77.6028 49.768C77.2188 50.12 76.9988 50.608 76.9428 51.232H81.0948ZM84.0122 55.072C83.8042 55.072 83.6282 55 83.4842 54.856C83.3402 54.712 83.2682 54.536 83.2682 54.328C83.2682 54.12 83.3402 53.944 83.4842 53.8C83.6282 53.656 83.8042 53.584 84.0122 53.584C84.2122 53.584 84.3802 53.656 84.5162 53.8C84.6602 53.944 84.7322 54.12 84.7322 54.328C84.7322 54.536 84.6602 54.712 84.5162 54.856C84.3802 55 84.2122 55.072 84.0122 55.072ZM86.5318 55.072C86.3238 55.072 86.1478 55 86.0038 54.856C85.8598 54.712 85.7878 54.536 85.7878 54.328C85.7878 54.12 85.8598 53.944 86.0038 53.8C86.1478 53.656 86.3238 53.584 86.5318 53.584C86.7318 53.584 86.8998 53.656 87.0358 53.8C87.1798 53.944 87.2518 54.12 87.2518 54.328C87.2518 54.536 87.1798 54.712 87.0358 54.856C86.8998 55 86.7318 55.072 86.5318 55.072ZM89.0513 55.072C88.8433 55.072 88.6673 55 88.5233 54.856C88.3793 54.712 88.3073 54.536 88.3073 54.328C88.3073 54.12 88.3793 53.944 88.5233 53.8C88.6673 53.656 88.8433 53.584 89.0513 53.584C89.2513 53.584 89.4193 53.656 89.5553 53.8C89.6993 53.944 89.7713 54.12 89.7713 54.328C89.7713 54.536 89.6993 54.712 89.5553 54.856C89.4193 55 89.2513 55.072 89.0513 55.072Z" fill="black"/>
<path opacity="0.5" d="M30.2732 184.636V185.524H27.9932V193H26.9012V185.524H24.6092V184.636H30.2732ZM37.2814 186.424L33.3214 196.096H32.1934L33.4894 192.928L30.8374 186.424H32.0494L34.1134 191.752L36.1534 186.424H37.2814ZM39.4711 187.636C39.6871 187.26 40.0071 186.948 40.4311 186.7C40.8631 186.444 41.3631 186.316 41.9311 186.316C42.5151 186.316 43.0431 186.456 43.5151 186.736C43.9951 187.016 44.3711 187.412 44.6431 187.924C44.9151 188.428 45.0511 189.016 45.0511 189.688C45.0511 190.352 44.9151 190.944 44.6431 191.464C44.3711 191.984 43.9951 192.388 43.5151 192.676C43.0431 192.964 42.5151 193.108 41.9311 193.108C41.3711 193.108 40.8751 192.984 40.4431 192.736C40.0191 192.48 39.6951 192.164 39.4711 191.788V196.12H38.3791V186.424H39.4711V187.636ZM43.9351 189.688C43.9351 189.192 43.8351 188.76 43.6351 188.392C43.4351 188.024 43.1631 187.744 42.8191 187.552C42.4831 187.36 42.1111 187.264 41.7031 187.264C41.3031 187.264 40.9311 187.364 40.5871 187.564C40.2511 187.756 39.9791 188.04 39.7711 188.416C39.5711 188.784 39.4711 189.212 39.4711 189.7C39.4711 190.196 39.5711 190.632 39.7711 191.008C39.9791 191.376 40.2511 191.66 40.5871 191.86C40.9311 192.052 41.3031 192.148 41.7031 192.148C42.1111 192.148 42.4831 192.052 42.8191 191.86C43.1631 191.66 43.4351 191.376 43.6351 191.008C43.8351 190.632 43.9351 190.192 43.9351 189.688ZM52.4885 189.46C52.4885 189.668 52.4765 189.888 52.4525 190.12H47.1965C47.2365 190.768 47.4565 191.276 47.8565 191.644C48.2645 192.004 48.7565 192.184 49.3325 192.184C49.8045 192.184 50.1965 192.076 50.5085 191.86C50.8285 191.636 51.0525 191.34 51.1805 190.972H52.3565C52.1805 191.604 51.8285 192.12 51.3005 192.52C50.7725 192.912 50.1165 193.108 49.3325 193.108C48.7085 193.108 48.1485 192.968 47.6525 192.688C47.1645 192.408 46.7805 192.012 46.5005 191.5C46.2205 190.98 46.0805 190.38 46.0805 189.7C46.0805 189.02 46.2165 188.424 46.4885 187.912C46.7605 187.4 47.1405 187.008 47.6285 186.736C48.1245 186.456 48.6925 186.316 49.3325 186.316C49.9565 186.316 50.5085 186.452 50.9885 186.724C51.4685 186.996 51.8365 187.372 52.0925 187.852C52.3565 188.324 52.4885 188.86 52.4885 189.46ZM51.3605 189.232C51.3605 188.816 51.2685 188.46 51.0845 188.164C50.9005 187.86 50.6485 187.632 50.3285 187.48C50.0165 187.32 49.6685 187.24 49.2845 187.24C48.7325 187.24 48.2605 187.416 47.8685 187.768C47.4845 188.12 47.2645 188.608 47.2085 189.232H51.3605ZM60.3931 186.304C60.8891 186.304 61.3371 186.412 61.7371 186.628C62.1371 186.836 62.4491 187.152 62.6731 187.576C62.9051 188 63.0211 188.516 63.0211 189.124V193H61.9411V189.28C61.9411 188.624 61.7771 188.124 61.4491 187.78C61.1211 187.428 60.6731 187.252 60.1051 187.252C59.5291 187.252 59.0691 187.432 58.7251 187.792C58.3891 188.152 58.2211 188.676 58.2211 189.364V193H57.1291V184.12H58.2211V187.36C58.4371 187.024 58.7331 186.764 59.1091 186.58C59.4931 186.396 59.9211 186.304 60.3931 186.304ZM70.8049 189.46C70.8049 189.668 70.7929 189.888 70.7689 190.12H65.5129C65.5529 190.768 65.7729 191.276 66.1729 191.644C66.5809 192.004 67.0729 192.184 67.6489 192.184C68.1209 192.184 68.5129 192.076 68.8249 191.86C69.1449 191.636 69.3689 191.34 69.4969 190.972H70.6729C70.4969 191.604 70.1449 192.12 69.6169 192.52C69.0889 192.912 68.4329 193.108 67.6489 193.108C67.0249 193.108 66.4649 192.968 65.9689 192.688C65.4809 192.408 65.0969 192.012 64.8169 191.5C64.5369 190.98 64.3969 190.38 64.3969 189.7C64.3969 189.02 64.5329 188.424 64.8049 187.912C65.0769 187.4 65.4569 187.008 65.9449 186.736C66.4409 186.456 67.0089 186.316 67.6489 186.316C68.2729 186.316 68.8249 186.452 69.3049 186.724C69.7849 186.996 70.1529 187.372 70.4089 187.852C70.6729 188.324 70.8049 188.86 70.8049 189.46ZM69.6769 189.232C69.6769 188.816 69.5849 188.46 69.4009 188.164C69.2169 187.86 68.9649 187.632 68.6449 187.48C68.3329 187.32 67.9849 187.24 67.6009 187.24C67.0489 187.24 66.5769 187.416 66.1849 187.768C65.8009 188.12 65.5809 188.608 65.5249 189.232H69.6769ZM73.3383 187.492C73.5303 187.116 73.8023 186.824 74.1543 186.616C74.5143 186.408 74.9503 186.304 75.4623 186.304V187.432H75.1743C73.9503 187.432 73.3383 188.096 73.3383 189.424V193H72.2463V186.424H73.3383V187.492ZM82.7228 189.46C82.7228 189.668 82.7108 189.888 82.6868 190.12H77.4308C77.4708 190.768 77.6908 191.276 78.0908 191.644C78.4988 192.004 78.9908 192.184 79.5668 192.184C80.0388 192.184 80.4308 192.076 80.7428 191.86C81.0628 191.636 81.2868 191.34 81.4148 190.972H82.5908C82.4148 191.604 82.0628 192.12 81.5348 192.52C81.0068 192.912 80.3508 193.108 79.5668 193.108C78.9428 193.108 78.3828 192.968 77.8868 192.688C77.3988 192.408 77.0148 192.012 76.7348 191.5C76.4548 190.98 76.3148 190.38 76.3148 189.7C76.3148 189.02 76.4508 188.424 76.7228 187.912C76.9948 187.4 77.3748 187.008 77.8628 186.736C78.3588 186.456 78.9268 186.316 79.5668 186.316C80.1908 186.316 80.7428 186.452 81.2228 186.724C81.7028 186.996 82.0708 187.372 82.3268 187.852C82.5908 188.324 82.7228 188.86 82.7228 189.46ZM81.5948 189.232C81.5948 188.816 81.5028 188.46 81.3188 188.164C81.1348 187.86 80.8828 187.632 80.5628 187.48C80.2508 187.32 79.9028 187.24 79.5188 187.24C78.9668 187.24 78.4948 187.416 78.1028 187.768C77.7188 188.12 77.4988 188.608 77.4428 189.232H81.5948ZM84.5122 193.072C84.3042 193.072 84.1282 193 83.9842 192.856C83.8402 192.712 83.7682 192.536 83.7682 192.328C83.7682 192.12 83.8402 191.944 83.9842 191.8C84.1282 191.656 84.3042 191.584 84.5122 191.584C84.7122 191.584 84.8802 191.656 85.0162 191.8C85.1602 191.944 85.2322 192.12 85.2322 192.328C85.2322 192.536 85.1602 192.712 85.0162 192.856C84.8802 193 84.7122 193.072 84.5122 193.072ZM87.0318 193.072C86.8238 193.072 86.6478 193 86.5038 192.856C86.3598 192.712 86.2878 192.536 86.2878 192.328C86.2878 192.12 86.3598 191.944 86.5038 191.8C86.6478 191.656 86.8238 191.584 87.0318 191.584C87.2318 191.584 87.3998 191.656 87.5358 191.8C87.6798 191.944 87.7518 192.12 87.7518 192.328C87.7518 192.536 87.6798 192.712 87.5358 192.856C87.3998 193 87.2318 193.072 87.0318 193.072ZM89.5513 193.072C89.3433 193.072 89.1673 193 89.0233 192.856C88.8793 192.712 88.8073 192.536 88.8073 192.328C88.8073 192.12 88.8793 191.944 89.0233 191.8C89.1673 191.656 89.3433 191.584 89.5513 191.584C89.7513 191.584 89.9193 191.656 90.0553 191.8C90.1993 191.944 90.2713 192.12 90.2713 192.328C90.2713 192.536 90.1993 192.712 90.0553 192.856C89.9193 193 89.7513 193.072 89.5513 193.072Z" fill="black"/>
<path opacity="0.5" d="M29.7732 253.636V254.524H27.4932V262H26.4012V254.524H24.1092V253.636H29.7732ZM36.7814 255.424L32.8214 265.096H31.6934L32.9894 261.928L30.3374 255.424H31.5494L33.6134 260.752L35.6534 255.424H36.7814ZM38.9711 256.636C39.1871 256.26 39.5071 255.948 39.9311 255.7C40.3631 255.444 40.8631 255.316 41.4311 255.316C42.0151 255.316 42.5431 255.456 43.0151 255.736C43.4951 256.016 43.8711 256.412 44.1431 256.924C44.4151 257.428 44.5511 258.016 44.5511 258.688C44.5511 259.352 44.4151 259.944 44.1431 260.464C43.8711 260.984 43.4951 261.388 43.0151 261.676C42.5431 261.964 42.0151 262.108 41.4311 262.108C40.8711 262.108 40.3751 261.984 39.9431 261.736C39.5191 261.48 39.1951 261.164 38.9711 260.788V265.12H37.8791V255.424H38.9711V256.636ZM43.4351 258.688C43.4351 258.192 43.3351 257.76 43.1351 257.392C42.9351 257.024 42.6631 256.744 42.3191 256.552C41.9831 256.36 41.6111 256.264 41.2031 256.264C40.8031 256.264 40.4311 256.364 40.0871 256.564C39.7511 256.756 39.4791 257.04 39.2711 257.416C39.0711 257.784 38.9711 258.212 38.9711 258.7C38.9711 259.196 39.0711 259.632 39.2711 260.008C39.4791 260.376 39.7511 260.66 40.0871 260.86C40.4311 261.052 40.8031 261.148 41.2031 261.148C41.6111 261.148 41.9831 261.052 42.3191 260.86C42.6631 260.66 42.9351 260.376 43.1351 260.008C43.3351 259.632 43.4351 259.192 43.4351 258.688ZM51.9885 258.46C51.9885 258.668 51.9765 258.888 51.9525 259.12H46.6965C46.7365 259.768 46.9565 260.276 47.3565 260.644C47.7645 261.004 48.2565 261.184 48.8325 261.184C49.3045 261.184 49.6965 261.076 50.0085 260.86C50.3285 260.636 50.5525 260.34 50.6805 259.972H51.8565C51.6805 260.604 51.3285 261.12 50.8005 261.52C50.2725 261.912 49.6165 262.108 48.8325 262.108C48.2085 262.108 47.6485 261.968 47.1525 261.688C46.6645 261.408 46.2805 261.012 46.0005 260.5C45.7205 259.98 45.5805 259.38 45.5805 258.7C45.5805 258.02 45.7165 257.424 45.9885 256.912C46.2605 256.4 46.6405 256.008 47.1285 255.736C47.6245 255.456 48.1925 255.316 48.8325 255.316C49.4565 255.316 50.0085 255.452 50.4885 255.724C50.9685 255.996 51.3365 256.372 51.5925 256.852C51.8565 257.324 51.9885 257.86 51.9885 258.46ZM50.8605 258.232C50.8605 257.816 50.7685 257.46 50.5845 257.164C50.4005 256.86 50.1485 256.632 49.8285 256.48C49.5165 256.32 49.1685 256.24 48.7845 256.24C48.2325 256.24 47.7605 256.416 47.3685 256.768C46.9845 257.12 46.7645 257.608 46.7085 258.232H50.8605ZM59.8931 255.304C60.3891 255.304 60.8371 255.412 61.2371 255.628C61.6371 255.836 61.9491 256.152 62.1731 256.576C62.4051 257 62.5211 257.516 62.5211 258.124V262H61.4411V258.28C61.4411 257.624 61.2771 257.124 60.9491 256.78C60.6211 256.428 60.1731 256.252 59.6051 256.252C59.0291 256.252 58.5691 256.432 58.2251 256.792C57.8891 257.152 57.7211 257.676 57.7211 258.364V262H56.6291V253.12H57.7211V256.36C57.9371 256.024 58.2331 255.764 58.6091 255.58C58.9931 255.396 59.4211 255.304 59.8931 255.304ZM70.3049 258.46C70.3049 258.668 70.2929 258.888 70.2689 259.12H65.0129C65.0529 259.768 65.2729 260.276 65.6729 260.644C66.0809 261.004 66.5729 261.184 67.1489 261.184C67.6209 261.184 68.0129 261.076 68.3249 260.86C68.6449 260.636 68.8689 260.34 68.9969 259.972H70.1729C69.9969 260.604 69.6449 261.12 69.1169 261.52C68.5889 261.912 67.9329 262.108 67.1489 262.108C66.5249 262.108 65.9649 261.968 65.4689 261.688C64.9809 261.408 64.5969 261.012 64.3169 260.5C64.0369 259.98 63.8969 259.38 63.8969 258.7C63.8969 258.02 64.0329 257.424 64.3049 256.912C64.5769 256.4 64.9569 256.008 65.4449 255.736C65.9409 255.456 66.5089 255.316 67.1489 255.316C67.7729 255.316 68.3249 255.452 68.8049 255.724C69.2849 255.996 69.6529 256.372 69.9089 256.852C70.1729 257.324 70.3049 257.86 70.3049 258.46ZM69.1769 258.232C69.1769 257.816 69.0849 257.46 68.9009 257.164C68.7169 256.86 68.4649 256.632 68.1449 256.48C67.8329 256.32 67.4849 256.24 67.1009 256.24C66.5489 256.24 66.0769 256.416 65.6849 256.768C65.3009 257.12 65.0809 257.608 65.0249 258.232H69.1769ZM72.8383 256.492C73.0303 256.116 73.3023 255.824 73.6543 255.616C74.0143 255.408 74.4503 255.304 74.9623 255.304V256.432H74.6743C73.4503 256.432 72.8383 257.096 72.8383 258.424V262H71.7463V255.424H72.8383V256.492ZM82.2228 258.46C82.2228 258.668 82.2108 258.888 82.1868 259.12H76.9308C76.9708 259.768 77.1908 260.276 77.5908 260.644C77.9988 261.004 78.4908 261.184 79.0668 261.184C79.5388 261.184 79.9308 261.076 80.2428 260.86C80.5628 260.636 80.7868 260.34 80.9148 259.972H82.0908C81.9148 260.604 81.5628 261.12 81.0348 261.52C80.5068 261.912 79.8508 262.108 79.0668 262.108C78.4428 262.108 77.8828 261.968 77.3868 261.688C76.8988 261.408 76.5148 261.012 76.2348 260.5C75.9548 259.98 75.8148 259.38 75.8148 258.7C75.8148 258.02 75.9508 257.424 76.2228 256.912C76.4948 256.4 76.8748 256.008 77.3628 255.736C77.8588 255.456 78.4268 255.316 79.0668 255.316C79.6908 255.316 80.2428 255.452 80.7228 255.724C81.2028 255.996 81.5708 256.372 81.8268 256.852C82.0908 257.324 82.2228 257.86 82.2228 258.46ZM81.0948 258.232C81.0948 257.816 81.0028 257.46 80.8188 257.164C80.6348 256.86 80.3828 256.632 80.0628 256.48C79.7508 256.32 79.4028 256.24 79.0188 256.24C78.4668 256.24 77.9948 256.416 77.6028 256.768C77.2188 257.12 76.9988 257.608 76.9428 258.232H81.0948ZM84.0122 262.072C83.8042 262.072 83.6282 262 83.4842 261.856C83.3402 261.712 83.2682 261.536 83.2682 261.328C83.2682 261.12 83.3402 260.944 83.4842 260.8C83.6282 260.656 83.8042 260.584 84.0122 260.584C84.2122 260.584 84.3802 260.656 84.5162 260.8C84.6602 260.944 84.7322 261.12 84.7322 261.328C84.7322 261.536 84.6602 261.712 84.5162 261.856C84.3802 262 84.2122 262.072 84.0122 262.072ZM86.5318 262.072C86.3238 262.072 86.1478 262 86.0038 261.856C85.8598 261.712 85.7878 261.536 85.7878 261.328C85.7878 261.12 85.8598 260.944 86.0038 260.8C86.1478 260.656 86.3238 260.584 86.5318 260.584C86.7318 260.584 86.8998 260.656 87.0358 260.8C87.1798 260.944 87.2518 261.12 87.2518 261.328C87.2518 261.536 87.1798 261.712 87.0358 261.856C86.8998 262 86.7318 262.072 86.5318 262.072ZM89.0513 262.072C88.8433 262.072 88.6673 262 88.5233 261.856C88.3793 261.712 88.3073 261.536 88.3073 261.328C88.3073 261.12 88.3793 260.944 88.5233 260.8C88.6673 260.656 88.8433 260.584 89.0513 260.584C89.2513 260.584 89.4193 260.656 89.5553 260.8C89.6993 260.944 89.7713 261.12 89.7713 261.328C89.7713 261.536 89.6993 261.712 89.5553 261.856C89.4193 262 89.2513 262.072 89.0513 262.072Z" fill="black"/>
<path opacity="0.5" d="M29.7732 115.636V116.524H27.4932V124H26.4012V116.524H24.1092V115.636H29.7732ZM36.7814 117.424L32.8214 127.096H31.6934L32.9894 123.928L30.3374 117.424H31.5494L33.6134 122.752L35.6534 117.424H36.7814ZM38.9711 118.636C39.1871 118.26 39.5071 117.948 39.9311 117.7C40.3631 117.444 40.8631 117.316 41.4311 117.316C42.0151 117.316 42.5431 117.456 43.0151 117.736C43.4951 118.016 43.8711 118.412 44.1431 118.924C44.4151 119.428 44.5511 120.016 44.5511 120.688C44.5511 121.352 44.4151 121.944 44.1431 122.464C43.8711 122.984 43.4951 123.388 43.0151 123.676C42.5431 123.964 42.0151 124.108 41.4311 124.108C40.8711 124.108 40.3751 123.984 39.9431 123.736C39.5191 123.48 39.1951 123.164 38.9711 122.788V127.12H37.8791V117.424H38.9711V118.636ZM43.4351 120.688C43.4351 120.192 43.3351 119.76 43.1351 119.392C42.9351 119.024 42.6631 118.744 42.3191 118.552C41.9831 118.36 41.6111 118.264 41.2031 118.264C40.8031 118.264 40.4311 118.364 40.0871 118.564C39.7511 118.756 39.4791 119.04 39.2711 119.416C39.0711 119.784 38.9711 120.212 38.9711 120.7C38.9711 121.196 39.0711 121.632 39.2711 122.008C39.4791 122.376 39.7511 122.66 40.0871 122.86C40.4311 123.052 40.8031 123.148 41.2031 123.148C41.6111 123.148 41.9831 123.052 42.3191 122.86C42.6631 122.66 42.9351 122.376 43.1351 122.008C43.3351 121.632 43.4351 121.192 43.4351 120.688ZM51.9885 120.46C51.9885 120.668 51.9765 120.888 51.9525 121.12H46.6965C46.7365 121.768 46.9565 122.276 47.3565 122.644C47.7645 123.004 48.2565 123.184 48.8325 123.184C49.3045 123.184 49.6965 123.076 50.0085 122.86C50.3285 122.636 50.5525 122.34 50.6805 121.972H51.8565C51.6805 122.604 51.3285 123.12 50.8005 123.52C50.2725 123.912 49.6165 124.108 48.8325 124.108C48.2085 124.108 47.6485 123.968 47.1525 123.688C46.6645 123.408 46.2805 123.012 46.0005 122.5C45.7205 121.98 45.5805 121.38 45.5805 120.7C45.5805 120.02 45.7165 119.424 45.9885 118.912C46.2605 118.4 46.6405 118.008 47.1285 117.736C47.6245 117.456 48.1925 117.316 48.8325 117.316C49.4565 117.316 50.0085 117.452 50.4885 117.724C50.9685 117.996 51.3365 118.372 51.5925 118.852C51.8565 119.324 51.9885 119.86 51.9885 120.46ZM50.8605 120.232C50.8605 119.816 50.7685 119.46 50.5845 119.164C50.4005 118.86 50.1485 118.632 49.8285 118.48C49.5165 118.32 49.1685 118.24 48.7845 118.24C48.2325 118.24 47.7605 118.416 47.3685 118.768C46.9845 119.12 46.7645 119.608 46.7085 120.232H50.8605ZM59.8931 117.304C60.3891 117.304 60.8371 117.412 61.2371 117.628C61.6371 117.836 61.9491 118.152 62.1731 118.576C62.4051 119 62.5211 119.516 62.5211 120.124V124H61.4411V120.28C61.4411 119.624 61.2771 119.124 60.9491 118.78C60.6211 118.428 60.1731 118.252 59.6051 118.252C59.0291 118.252 58.5691 118.432 58.2251 118.792C57.8891 119.152 57.7211 119.676 57.7211 120.364V124H56.6291V115.12H57.7211V118.36C57.9371 118.024 58.2331 117.764 58.6091 117.58C58.9931 117.396 59.4211 117.304 59.8931 117.304ZM70.3049 120.46C70.3049 120.668 70.2929 120.888 70.2689 121.12H65.0129C65.0529 121.768 65.2729 122.276 65.6729 122.644C66.0809 123.004 66.5729 123.184 67.1489 123.184C67.6209 123.184 68.0129 123.076 68.3249 122.86C68.6449 122.636 68.8689 122.34 68.9969 121.972H70.1729C69.9969 122.604 69.6449 123.12 69.1169 123.52C68.5889 123.912 67.9329 124.108 67.1489 124.108C66.5249 124.108 65.9649 123.968 65.4689 123.688C64.9809 123.408 64.5969 123.012 64.3169 122.5C64.0369 121.98 63.8969 121.38 63.8969 120.7C63.8969 120.02 64.0329 119.424 64.3049 118.912C64.5769 118.4 64.9569 118.008 65.4449 117.736C65.9409 117.456 66.5089 117.316 67.1489 117.316C67.7729 117.316 68.3249 117.452 68.8049 117.724C69.2849 117.996 69.6529 118.372 69.9089 118.852C70.1729 119.324 70.3049 119.86 70.3049 120.46ZM69.1769 120.232C69.1769 119.816 69.0849 119.46 68.9009 119.164C68.7169 118.86 68.4649 118.632 68.1449 118.48C67.8329 118.32 67.4849 118.24 67.1009 118.24C66.5489 118.24 66.0769 118.416 65.6849 118.768C65.3009 119.12 65.0809 119.608 65.0249 120.232H69.1769ZM72.8383 118.492C73.0303 118.116 73.3023 117.824 73.6543 117.616C74.0143 117.408 74.4503 117.304 74.9623 117.304V118.432H74.6743C73.4503 118.432 72.8383 119.096 72.8383 120.424V124H71.7463V117.424H72.8383V118.492ZM82.2228 120.46C82.2228 120.668 82.2108 120.888 82.1868 121.12H76.9308C76.9708 121.768 77.1908 122.276 77.5908 122.644C77.9988 123.004 78.4908 123.184 79.0668 123.184C79.5388 123.184 79.9308 123.076 80.2428 122.86C80.5628 122.636 80.7868 122.34 80.9148 121.972H82.0908C81.9148 122.604 81.5628 123.12 81.0348 123.52C80.5068 123.912 79.8508 124.108 79.0668 124.108C78.4428 124.108 77.8828 123.968 77.3868 123.688C76.8988 123.408 76.5148 123.012 76.2348 122.5C75.9548 121.98 75.8148 121.38 75.8148 120.7C75.8148 120.02 75.9508 119.424 76.2228 118.912C76.4948 118.4 76.8748 118.008 77.3628 117.736C77.8588 117.456 78.4268 117.316 79.0668 117.316C79.6908 117.316 80.2428 117.452 80.7228 117.724C81.2028 117.996 81.5708 118.372 81.8268 118.852C82.0908 119.324 82.2228 119.86 82.2228 120.46ZM81.0948 120.232C81.0948 119.816 81.0028 119.46 80.8188 119.164C80.6348 118.86 80.3828 118.632 80.0628 118.48C79.7508 118.32 79.4028 118.24 79.0188 118.24C78.4668 118.24 77.9948 118.416 77.6028 118.768C77.2188 119.12 76.9988 119.608 76.9428 120.232H81.0948ZM84.0122 124.072C83.8042 124.072 83.6282 124 83.4842 123.856C83.3402 123.712 83.2682 123.536 83.2682 123.328C83.2682 123.12 83.3402 122.944 83.4842 122.8C83.6282 122.656 83.8042 122.584 84.0122 122.584C84.2122 122.584 84.3802 122.656 84.5162 122.8C84.6602 122.944 84.7322 123.12 84.7322 123.328C84.7322 123.536 84.6602 123.712 84.5162 123.856C84.3802 124 84.2122 124.072 84.0122 124.072ZM86.5318 124.072C86.3238 124.072 86.1478 124 86.0038 123.856C85.8598 123.712 85.7878 123.536 85.7878 123.328C85.7878 123.12 85.8598 122.944 86.0038 122.8C86.1478 122.656 86.3238 122.584 86.5318 122.584C86.7318 122.584 86.8998 122.656 87.0358 122.8C87.1798 122.944 87.2518 123.12 87.2518 123.328C87.2518 123.536 87.1798 123.712 87.0358 123.856C86.8998 124 86.7318 124.072 86.5318 124.072ZM89.0513 124.072C88.8433 124.072 88.6673 124 88.5233 123.856C88.3793 123.712 88.3073 123.536 88.3073 123.328C88.3073 123.12 88.3793 122.944 88.5233 122.8C88.6673 122.656 88.8433 122.584 89.0513 122.584C89.2513 122.584 89.4193 122.656 89.5553 122.8C89.6993 122.944 89.7713 123.12 89.7713 123.328C89.7713 123.536 89.6993 123.712 89.5553 123.856C89.4193 124 89.2513 124.072 89.0513 124.072Z" fill="black"/>
</svg>
