<?xml version="1.0" encoding="UTF-8"?>
<svg id="Laag_2" data-name="Laag 2" xmlns="http://www.w3.org/2000/svg" viewBox="0 0 129.83 200.36">
  <defs>
    <style>
      .cls-1 {
        stroke-linecap: round;
      }

      .cls-1, .cls-2 {
        stroke-width: 1.96px;
      }

      .cls-1, .cls-2, .cls-3, .cls-4, .cls-5 {
        fill: none;
        stroke: #000;
        stroke-miterlimit: 10;
      }

      .cls-6 {
        fill: #666;
      }

      .cls-6, .cls-7 {
        stroke-width: 0px;
      }

      .cls-3 {
        stroke-width: 2.94px;
      }

      .cls-4 {
        stroke-width: .98px;
      }

      .cls-5 {
        stroke-width: 3.92px;
      }

      .cls-8 {
        font-family: Poppins-Regular, Poppins;
        font-size: 28px;
      }
    </style>
  </defs>
  <g id="Laag_2-2" data-name="Laag 2">
    <g>
      <g>
        <path class="cls-5" d="m84.22,38.72C84.22,18.42,67.09,1.96,45.96,1.96S7.69,18.42,7.69,38.72c0,10.78,5.21,20.11,12.54,27.21,25.73,24.93,25.73,39.32,25.73,39.32,0,0,0-14.52,26.1-39.65,7.23-6.96,12.16-16.27,12.16-26.88Z"/>
        <g>
          <path class="cls-7" d="m51.92,16.33c-1.83-1.62-5.97,6.11-5.97,6.11l-6.53,11.03-7.2-4.05,7.76-13.1c.73-1.23,2.07-1.99,3.53-1.99h4.89c1.45,0,2.8.76,3.53,1.99Z"/>
          <path class="cls-6" d="m61.07,26.43l-3.2,8.02-8.72-1.31,2.35-1.32-5.55-9.38s4.14-7.74,5.97-6.11l6.78,11.44,2.37-1.34Z"/>
          <path class="cls-7" d="m21.74,46.97c-.52,2.36,8.42,1.99,8.42,1.99h13.07s0,8.1,0,8.1h-15.51c-1.45,0-2.8-.76-3.53-1.99l-2.45-4.13c-.73-1.23-.73-2.74,0-3.97Z"/>
          <path class="cls-6" d="m26.14,34.19l8.72-1.31,3.2,8.02-2.35-1.32-5.55,9.38s-8.94.37-8.42-1.99l6.77-11.44-2.37-1.34Z"/>
          <path class="cls-7" d="m64.2,57.02c2.36-.74-2.44-8.1-2.44-8.1l-6.54-11.03,7.2-4.05,7.76,13.1c.73,1.23.73,2.74,0,3.97l-2.45,4.13c-.73,1.23-2.07,1.99-3.53,1.99Z"/>
          <path class="cls-6" d="m50.65,59.69l-5.52-6.71,5.52-6.71v2.65s11.11,0,11.11,0c0,0,4.8,7.36,2.44,8.1h-13.55s0,2.67,0,2.67Z"/>
        </g>
        <g>
          <path class="cls-3" d="m74.15,68.13l20.33-12.33c4.63-3.09,6.65-5.03,7.83-7.16.46-.83,1.44-2.76,3.27-5.2,1.13-1.51,3.14-3.31,4.03-4.05,3.25-2.71,9.74-1.95,14.1,1.09,5.54,3.87,5.07,8.98,3.74,14.6-.37,1.58-1.25,4.75-4.15,8.95-2.69,3.89-5.64,6.58-8.06,8.1-.59.37-1.04.63-1.2.73-3.24,1.89-10.53,6.29-26.31,15.96"/>
          <ellipse class="cls-2" cx="112.69" cy="81.63" rx="6.91" ry="4.77" transform="translate(-26.24 73.73) rotate(-32.66)"/>
          <line class="cls-1" x1="102.14" y1="80" x2="107.44" y2="86.03"/>
          <line class="cls-1" x1="113.81" y1="72.79" x2="118.23" y2="77.53"/>
          <ellipse class="cls-4" cx="94.25" cy="66.95" rx=".51" ry=".49"/>
          <ellipse class="cls-4" cx="97.03" cy="70.31" rx=".51" ry=".49"/>
          <ellipse class="cls-4" cx="99.78" cy="63.06" rx=".51" ry=".49"/>
          <ellipse class="cls-4" cx="102.45" cy="66.39" rx=".51" ry=".49"/>
          <line class="cls-3" x1="74.15" y1="68.13" x2="63.56" y2="74.55"/>
          <path class="cls-3" d="m37.43,84.78c-.23.04-.48.09-.73.15-1.78.41-3.87,1.21-4.81,1.6-3.95,1.66-6.02,7.61-5.03,12.69,1.26,6.47,6.26,8.25,12.11,9.52,1.65.36,5,.96,10.19.24,4.81-.66,8.6-2.07,11.08-3.51.6-.35,1.04-.63,1.2-.73,3.17-2,10.44-6.44,26.31-15.96"/>
          <ellipse class="cls-2" cx="70.29" cy="107.36" rx="6.94" ry="4.75" transform="translate(-40.07 41.88) rotate(-26.11)"/>
          <line class="cls-1" x1="73.28" y1="97.5" x2="76.68" y2="104.7"/>
          <line class="cls-1" x1="61.49" y1="104.53" x2="64.05" y2="110.4"/>
          <ellipse class="cls-4" cx="64.41" cy="85.06" rx=".51" ry=".49"/>
          <ellipse class="cls-4" cx="66.36" cy="88.91" rx=".51" ry=".49"/>
          <ellipse class="cls-4" cx="58.37" cy="88.18" rx=".51" ry=".49"/>
          <ellipse class="cls-4" cx="60.36" cy="91.93" rx=".51" ry=".49"/>
        </g>
      </g>
      <text class="cls-8" transform="translate(5.48 159.96)"><tspan x="0" y="0">Drop-off</tspan><tspan x="-4.7" y="23">locations</tspan></text>
    </g>
  </g>
</svg>