<?xml version="1.0" encoding="UTF-8"?>
<svg id="Laag_2" data-name="Laag 2" xmlns="http://www.w3.org/2000/svg" viewBox="0 0 243.48 295.66">
  <defs>
    <style>
      .cls-1 {
        fill: #e0e0e0;
        stroke-width: 0px;
      }
    </style>
  </defs>
  <g id="Laag_2-2" data-name="Laag 2">
    <path class="cls-1" d="m113.76,21.09c-2.66-2.39-3.63-3.19-4.74-5.46-1-2.04-1.43-3.86-3.12-4.49-2.04-.76-5.02.55-6.22,2.67-.8,1.4-.86,3.24,1.43,9.14,1.85,4.75,3.31,7.21,4.92,10.48,1.56,3.17,1.48,3.48,5.57,13.99,1.23,3.15,3.01,7.67,5.23,13.16-3.59,2.04-8.69,5.39-13.67,10.66-3.67,3.88-4.34,5.69-10.18,14.13-7.78,11.23-8.63,10.97-14.77,20.25-4.91,7.42-7.62,12.49-9.71,17.09-6.06,13.27-4.66,17.21-3.93,18.71.96,1.98,2.38,3.07,4.44,7.39.79,1.66,2.02,4.25,2.39,6.38.68,3.96-1.29,8.29-7.56,15.25-5.93,6.58-11.55,10.91-19.4,16.56-12.11,8.71-11.5,7.61-19.58,13.73,0,0-4.3,3.26-19.31,17.98-.62.61-2.12,2.1-3.41,4.48-.76,1.39-2.45,4.51-2.06,7.8.1.84.42,2.41,6.51,8.68,6.51,6.69,9,7.83,11.04,8.39,1.49.41,2.44-.05,4.3.58,2.61.89,3.83,2.42,5.64,3.9,1.72,1.41,3.79,2.29,7.92,4.04,14.69,6.25,31.35,6.26,31.35,6.26,9.68,0,16.62-1.69,25.6-3.89,10.69-2.61,17.3-5.56,20.84-7.28,2.53-1.23,4.59-2.37,6.05-3.22,4.09,6.4,5.24,11.8,5.53,15.56.52,6.75-1.54,10.62-2.04,21.71-.19,4.23-.07,7.69.06,9.94l76.46-23.83c-.09-5.5-.43-18.1-2.12-29.86-.28-1.97-.87-5.79-3.31-9.86-1.24-2.06-3.61-6.02-8.06-7.65-2.49-.91-5.15-.54-10.37.24-6.26.93-7.11,1.88-12.57,2.47-4.22.46-6.6.7-9.65-.22-1.61-.49-6.42-1.94-8.2-5.95-.81-1.84-.73-3.87-.58-7.94.13-3.36.62-5.04-.48-7.07-.45-.84-1.08-1.48-2.33-2.75-2.42-2.46-3.3-2.43-3.94-3.9-.57-1.31-.66-3.15.17-4.45.98-1.53,2.98-1.87,2.88-2.18-.08-.26-1.29.29-2.53-.19-2.04-.79-2.54-3.73-2.58-3.97-.08-.5-.29-1.93.43-3.4,1.06-2.18,2.95-1.94,3.51-3.68.47-1.46-.34-3.25-1.37-4.22-1.21-1.13-2.15-.61-4.97-1.58-2.01-.69-3.59-1.24-4.71-2.76-1.3-1.76-1.52-4.2-.89-6.08.32-.94.8-1.57.99-1.81,4.04-5.2,9.81-11,13.19-17.19,1.03-1.88,2.08-3.84,2.55-6.67.12-.72.5-3.31-.51-8.79-.91-4.91-1.68-5.31-2.21-8.39-.72-4.17.09-7.27,1.4-13.1,1.36-6.02,3.36-10.33,4.83-13.47,1.36-2.89,3.15-6.65,6.29-10.93,4.36-5.93,8.82-9.46,11.99-11.94,1.42-1.11,7.67-5.9,17.25-10.07,8.4-3.66,15.21-5.03,21.83-6.37,5.35-1.08,10.03-2.03,16.35-2.24,9.37-.32,16.98,1.13,21.86,2.38-8.16-2.67-18.72-5.35-31.22-6.65-11.97-1.25-22.46-.89-30.82-.04-4.62-5.09-8.72-8.74-11.49-11.06-6.04-5.05-9.1-6.52-17.03-13.27-4.12-3.5-6.17-5.25-8-7.45-2.35-2.82-4.53-6.2-8.76-12.8-2.92-4.55-3.9-6.24-6.44-6.8-1.6-.35-3.29-.11-4.75.61-4.6,2.28-4.08,7.11-3.75,10.25.42,3.97,1.7,3.95,3.18,9.88,1.05,4.19.59,4.93,1.82,8.55,1.37,4.05,2.89,5.96,2.52,6.23-.55.42-3.85-4.03-10.91-10.81-1.7-1.64-3.03-2.84-4.08-3.78Z"/>
  </g>
</svg>