<?xml version="1.0" encoding="UTF-8"?>
<svg id="Laag_2" data-name="Laag 2" xmlns="http://www.w3.org/2000/svg" viewBox="0 0 243.48 295.66">
  <defs>
    <style>
      .cls-1 {
        stroke-width: 0px;
      }
    </style>
  </defs>
  <g id="Laag_2-2" data-name="Laag 2">
    <g>
      <path class="cls-1" d="m44.66,271.46c.13-7.75.61-19.01,2.11-29.42.26-1.82.8-5.6,3.25-9.68,1.23-2.05,3.52-5.87,7.81-7.44.95-.35,1.93-.5,3.17-.5,1.72,0,3.76.29,6.95.77,2.96.44,4.66.88,6.3,1.29,1.75.45,3.4.87,6.29,1.18,2.26.25,3.86.41,5.34.41,1.63,0,3.02-.2,4.51-.65,1.64-.5,6.64-2,8.51-6.22.86-1.94.78-4.02.62-8.15-.03-.78-.08-1.47-.12-2.1-.15-2.05-.23-3.29.54-4.73.41-.77,1.03-1.4,2.25-2.64,1.01-1.03,1.74-1.6,2.32-2.06.79-.62,1.31-1.04,1.73-1.99.59-1.36.76-3.41-.21-4.92-.41-.64-.98-1.09-1.51-1.42.33-.03.63-.11.92-.22,2.28-.88,2.84-4.01,2.89-4.36.22-1.37.06-2.61-.47-3.7-.6-1.24-1.47-1.79-2.16-2.23-.64-.41-1.1-.7-1.31-1.38-.41-1.27.33-2.86,1.24-3.71.59-.55,1.08-.63,1.98-.78.7-.12,1.58-.27,2.81-.69,2.08-.72,3.73-1.29,4.95-2.94,1.32-1.79,1.7-4.36.96-6.53-.35-1.05-.89-1.73-1.07-1.96-1.25-1.61-2.65-3.25-4.13-5-3.3-3.88-6.71-7.89-9.02-12.13-.95-1.74-2.03-3.71-2.49-6.51-.33-2.03-.16-5.01.51-8.62.49-2.66.94-3.97,1.34-5.13.34-.99.63-1.84.88-3.26.7-4.01,0-7.12-1.17-12.27l-.23-1.03c-1.4-6.2-3.49-10.63-4.87-13.57-1.31-2.79-3.11-6.61-6.34-11.01-4.49-6.11-9.06-9.67-12.09-12.04-2.25-1.75-8.44-6.25-17.36-10.13-8.45-3.68-15.3-5.06-21.93-6.4-5.41-1.09-10.07-2.03-16.44-2.25-.91-.03-1.8-.05-2.68-.05-3.06,0-6.13.18-9.19.55,6.98-1.76,14.1-3.03,21.26-3.78,5.15-.54,10.39-.81,15.56-.81s10.14.26,15.15.77l.25.03.17-.19c3.61-3.98,7.46-7.69,11.44-11.01,2.7-2.25,4.79-3.79,7.01-5.41,2.77-2.03,5.63-4.12,10.02-7.86,4.13-3.52,6.21-5.28,8.06-7.51,2.42-2.91,4.68-6.44,8.8-12.85l.39-.61c2.56-3.99,3.51-5.48,5.74-5.97.45-.1.91-.15,1.37-.15,1.04,0,2.09.25,3.05.72,4.28,2.12,3.79,6.71,3.47,9.75-.21,1.97-.63,2.9-1.21,4.18-.55,1.21-1.23,2.72-1.96,5.64-.47,1.89-.64,3.09-.8,4.14-.18,1.28-.34,2.39-1.01,4.37-.72,2.12-1.48,3.65-1.98,4.66-.6,1.2-.87,1.75-.37,2.13l.13.1.25.03c.58,0,1.23-.67,3.61-3.23,1.79-1.92,4.24-4.56,7.56-7.75,1.65-1.58,2.93-2.75,4.07-3.77l.37-.33c2.39-2.14,3.38-3.03,4.48-5.28.21-.43.4-.85.58-1.26.63-1.43,1.13-2.56,2.27-2.98.33-.12.7-.19,1.11-.19,1.72,0,3.65,1.13,4.51,2.63.72,1.27.72,3.11-1.46,8.71-1.37,3.52-2.55,5.82-3.69,8.05-.4.78-.8,1.56-1.21,2.4-1.01,2.05-1.33,2.89-2.52,6.04-.66,1.75-1.59,4.21-3.07,7.99-1.67,4.3-3.43,8.72-5.23,13.15l-.17.41.38.22c5.09,2.88,9.65,6.44,13.55,10.57,2.45,2.59,3.56,4.28,5.79,7.64,1.09,1.64,2.44,3.69,4.35,6.44,3.8,5.49,5.96,8.25,7.87,10.69,2.02,2.58,3.76,4.81,6.9,9.55,4.3,6.5,7.2,11.59,9.68,17.02,4.12,9.02,5.45,15.17,3.94,18.28-.37.76-.8,1.37-1.34,2.14-.82,1.17-1.85,2.62-3.1,5.25-.82,1.72-2.05,4.31-2.43,6.51-.73,4.26,1.49,8.8,7.68,15.67,6.19,6.87,12.23,11.41,19.48,16.63,5.87,4.22,8.76,6.15,11.09,7.7,2.51,1.67,4.33,2.88,8.48,6.03.04.03,4.48,3.44,19.27,17.94.56.55,2.05,2.01,3.32,4.36.71,1.31,2.38,4.38,2.01,7.5-.07.62-.24,2.09-6.37,8.39-6.47,6.65-8.89,7.72-10.81,8.26-.6.17-1.12.18-1.67.19-.73.01-1.55.03-2.65.4-2.09.71-3.31,1.8-4.6,2.95-.38.34-.77.69-1.2,1.04-1.67,1.36-3.72,2.23-7.8,3.97-14.43,6.14-30.99,6.22-31.16,6.22-9.64,0-16.63-1.71-25.48-3.87-7.93-1.94-14.71-4.31-20.74-7.24-2.04-.99-4.06-2.07-6.01-3.21l-.41-.24-.26.4c-3.31,5.18-5.2,10.49-5.6,15.79-.28,3.61.17,6.38.73,9.87.5,3.14,1.08,6.69,1.31,11.91.14,3.07.13,6.18-.02,9.25l-75.49-23.53Z"/>
      <path class="cls-1" d="m115.24,1c.96,0,1.94.23,2.83.67,3.97,1.97,3.52,6.18,3.2,9.25-.2,1.89-.61,2.79-1.17,4.03-.56,1.23-1.25,2.77-1.99,5.72-.48,1.91-.65,3.12-.81,4.19-.19,1.31-.34,2.35-.99,4.28-.71,2.09-1.46,3.6-1.95,4.6-.61,1.23-1.06,2.12-.22,2.75.2.15.44.23.69.23.82,0,1.49-.72,3.98-3.39,1.79-1.92,4.23-4.55,7.54-7.73,1.63-1.57,2.91-2.73,4.06-3.76l.37-.34c2.44-2.19,3.45-3.09,4.6-5.43.22-.44.41-.87.59-1.28.67-1.51,1.09-2.38,1.99-2.72.28-.1.59-.15.93-.15,1.55,0,3.3,1.02,4.07,2.38.52.91.83,2.31-1.49,8.28-1.36,3.5-2.48,5.68-3.67,8-.4.78-.8,1.57-1.22,2.4-1.02,2.07-1.37,3-2.54,6.09-.67,1.78-1.59,4.21-3.06,7.98-1.69,4.33-3.45,8.75-5.23,13.15l-.33.81.76.43c5.04,2.86,9.57,6.39,13.44,10.48,2.42,2.56,3.46,4.13,5.74,7.57,1.09,1.65,2.45,3.69,4.35,6.45,3.81,5.5,5.97,8.27,7.89,10.72,2.01,2.57,3.75,4.79,6.87,9.51,4.28,6.47,7.17,11.54,9.64,16.95,4.06,8.88,5.38,14.89,3.94,17.86-.35.72-.77,1.32-1.3,2.07-.83,1.18-1.87,2.65-3.14,5.32-.83,1.74-2.08,4.37-2.47,6.64-.76,4.43,1.5,9.09,7.8,16.09,6.22,6.91,12.29,11.47,19.56,16.71,5.88,4.23,8.78,6.16,11.11,7.71,2.5,1.67,4.31,2.87,8.46,6.01.04.03,4.48,3.44,19.22,17.89.54.53,1.99,1.95,3.23,4.24.75,1.37,2.3,4.24,1.95,7.21-.06.53-.23,1.92-6.24,8.1-6.38,6.56-8.73,7.61-10.59,8.13-.54.15-1.01.16-1.55.17-.76.01-1.63.03-2.8.43-2.18.74-3.5,1.92-4.77,3.05-.38.34-.77.69-1.18,1.02-1.61,1.32-3.64,2.18-7.68,3.9-14.32,6.09-30.8,6.18-31,6.18-9.54,0-16.51-1.7-25.32-3.86-7.89-1.93-14.64-4.29-20.64-7.21-2.03-.99-4.04-2.06-5.98-3.19l-.83-.48-.52.81c-3.36,5.25-5.27,10.64-5.68,16.02-.28,3.67.17,6.46.73,9.99.5,3.12,1.07,6.66,1.3,11.85.13,2.85.13,5.72,0,8.55l-74.52-23.23c.14-7.72.63-18.77,2.1-28.98.26-1.79.79-5.5,3.18-9.49,1.2-2,3.43-5.72,7.55-7.23.9-.33,1.82-.47,3-.47,1.68,0,3.71.29,6.87.76,2.94.44,4.62.87,6.25,1.28,1.76.45,3.43.87,6.36,1.2,2.28.25,3.89.41,5.4.41,1.68,0,3.11-.21,4.65-.67,1.7-.51,6.86-2.07,8.82-6.5.91-2.05.82-4.17.66-8.38-.03-.79-.08-1.49-.12-2.11-.14-2.03-.22-3.14.48-4.46.38-.71.98-1.32,2.16-2.52.99-1.01,1.7-1.57,2.27-2.02.82-.65,1.41-1.11,1.87-2.19.65-1.49.82-3.73-.25-5.39-.23-.36-.5-.66-.78-.92,2.5-1.01,3.1-4.35,3.16-4.73.23-1.47.06-2.81-.52-4-.67-1.36-1.6-1.96-2.34-2.44-.64-.41-.95-.63-1.11-1.11-.33-1.04.3-2.43,1.1-3.19.48-.45.84-.51,1.72-.65.68-.11,1.62-.27,2.89-.71,2.08-.72,3.88-1.34,5.19-3.11,1.41-1.92,1.82-4.66,1.03-6.99-.38-1.12-.96-1.86-1.15-2.11-1.26-1.62-2.66-3.27-4.14-5.01-3.28-3.86-6.67-7.85-8.96-12.04-.93-1.7-1.99-3.64-2.44-6.36-.32-1.94-.14-4.94.51-8.45.49-2.62.93-3.92,1.32-5.06.33-.96.64-1.88.89-3.34.71-4.11,0-7.26-1.18-12.47l-.23-1.02c-1.41-6.25-3.51-10.72-4.9-13.68-1.25-2.65-3.13-6.65-6.39-11.09-4.53-6.17-9.14-9.76-12.19-12.13-2.26-1.76-8.5-6.29-17.47-10.19-8.5-3.7-15.38-5.09-22.03-6.43-5.42-1.1-10.11-2.04-16.51-2.26-.89-.03-1.8-.05-2.69-.05s-1.71.01-2.56.04c4.85-1,9.76-1.76,14.68-2.27,5.13-.53,10.35-.81,15.51-.81s10.11.26,15.1.76l.5.05.34-.37c3.6-3.97,7.43-7.66,11.39-10.97,2.69-2.24,4.78-3.77,6.99-5.4,2.78-2.03,5.65-4.13,10.05-7.88,4.15-3.53,6.24-5.31,8.12-7.57,2.43-2.93,4.71-6.47,8.83-12.89l.39-.61c2.7-4.21,3.48-5.33,5.43-5.76.41-.09.84-.14,1.26-.14m0-1c-.5,0-.99.05-1.48.16-2.54.56-3.52,2.25-6.44,6.8-4.23,6.59-6.41,9.97-8.76,12.8-1.82,2.19-3.88,3.95-8,7.45-7.93,6.75-10.99,8.22-17.03,13.27-2.78,2.32-6.88,5.97-11.49,11.06-4.49-.46-9.59-.77-15.21-.77-4.84,0-10.07.23-15.61.81-12.5,1.3-23.06,3.98-31.22,6.65,4.42-1.13,11.05-2.43,19.2-2.43.87,0,1.76.01,2.66.05,6.32.22,11,1.16,16.35,2.24,6.62,1.34,13.43,2.71,21.83,6.37,9.58,4.17,15.83,8.96,17.25,10.07,3.18,2.48,7.64,6,11.99,11.94,3.14,4.27,4.93,8.03,6.29,10.93,1.48,3.14,3.48,7.45,4.83,13.47,1.32,5.84,2.13,8.94,1.4,13.1-.53,3.07-1.3,3.48-2.21,8.39-1.02,5.48-.63,8.07-.51,8.79.47,2.83,1.52,4.79,2.55,6.67,3.38,6.19,9.15,11.99,13.19,17.19.19.25.67.87.99,1.81.63,1.87.41,4.31-.89,6.08-1.12,1.52-2.7,2.07-4.71,2.76-2.81.97-3.76.45-4.97,1.58-1.04.97-1.84,2.76-1.37,4.22.56,1.74,2.44,1.5,3.51,3.68.72,1.47.51,2.9.43,3.4-.04.24-.54,3.18-2.58,3.97-.41.16-.82.21-1.19.21-.5,0-.92-.09-1.15-.09-.11,0-.17.02-.19.07-.09.32,1.9.65,2.88,2.18.83,1.3.74,3.14.17,4.45-.64,1.47-1.52,1.45-3.94,3.9-1.26,1.28-1.89,1.92-2.33,2.75-1.09,2.04-.6,3.71-.48,7.07.16,4.07.23,6.1-.58,7.94-1.77,4.01-6.58,5.46-8.2,5.95-1.52.46-2.87.63-4.36.63s-3.17-.18-5.29-.41c-5.46-.6-6.31-1.54-12.57-2.47-3.06-.46-5.24-.77-7.02-.77-1.26,0-2.32.16-3.35.53-4.46,1.63-6.83,5.59-8.06,7.65-2.44,4.07-3.03,7.9-3.31,9.86-1.69,11.76-2.03,24.36-2.12,29.86l76.46,23.83c.13-2.24.25-5.71.06-9.94-.49-11.09-2.56-14.97-2.04-21.71.29-3.75,1.43-9.15,5.53-15.56,1.46.85,3.52,1.99,6.05,3.22,3.54,1.72,10.16,4.67,20.84,7.28,8.97,2.2,15.9,3.89,25.56,3.89h.04s16.67,0,31.35-6.26c4.13-1.76,6.2-2.64,7.92-4.04,1.82-1.48,3.04-3.02,5.64-3.9,1.85-.63,2.81-.17,4.3-.58,2.03-.56,4.53-1.7,11.04-8.39,6.1-6.26,6.41-7.84,6.51-8.68.39-3.28-1.31-6.41-2.06-7.8-1.29-2.37-2.79-3.87-3.41-4.48-15.01-14.72-19.31-17.98-19.31-17.98-8.08-6.12-7.48-5.02-19.58-13.73-7.86-5.66-13.48-9.98-19.4-16.56-6.26-6.96-8.24-11.29-7.56-15.25.37-2.14,1.6-4.73,2.39-6.38,2.06-4.32,3.48-5.4,4.44-7.39.73-1.5,2.13-5.44-3.93-18.71-2.1-4.59-4.8-9.67-9.71-17.09-6.14-9.28-6.99-9.01-14.77-20.25-5.85-8.45-6.51-10.25-10.18-14.13-4.98-5.27-10.08-8.63-13.67-10.66,2.23-5.49,4.01-10.01,5.23-13.16,4.09-10.51,4.01-10.82,5.57-13.99,1.61-3.27,3.08-5.73,4.92-10.48,2.29-5.9,2.22-7.74,1.43-9.14-.97-1.7-3.09-2.88-4.94-2.88-.45,0-.88.07-1.28.22-1.69.63-2.12,2.45-3.12,4.49-1.11,2.27-2.08,3.07-4.74,5.46-1.06.95-2.38,2.15-4.08,3.78-6.75,6.49-10.06,10.84-10.82,10.84-.03,0-.06,0-.09-.03-.37-.28,1.16-2.18,2.52-6.23,1.22-3.62.77-4.35,1.82-8.55,1.49-5.93,2.76-5.91,3.18-9.88.34-3.14.85-7.97-3.75-10.25-1.02-.5-2.14-.78-3.27-.78h0Z"/>
    </g>
  </g>
</svg>