<?xml version="1.0" encoding="UTF-8"?>
<svg id="Laag_2" data-name="Laag 2" xmlns="http://www.w3.org/2000/svg" viewBox="0 0 138.66 203.13">
  <defs>
    <style>
      .cls-1, .cls-2, .cls-3, .cls-4, .cls-5 {
        fill: none;
        stroke: #000;
        stroke-miterlimit: 10;
      }

      .cls-1, .cls-3 {
        stroke-width: 2.05px;
      }

      .cls-2 {
        stroke-width: 4.09px;
      }

      .cls-3 {
        stroke-linecap: round;
      }

      .cls-6 {
        font-family: Poppins-Regular, Poppins;
        font-size: 30.74px;
      }

      .cls-4 {
        stroke-width: 1.02px;
      }

      .cls-5 {
        stroke-width: 3.07px;
      }
    </style>
  </defs>
  <g id="Laag_2-2" data-name="Laag 2">
    <g>
      <g>
        <path class="cls-2" d="m74.53,103.48v-15.72c0-5.33,4.13-9.65,9.22-9.65h7.55c5.09,0,9.22,4.32,9.22,9.65v22.55c0,5.33,4.13,9.65,9.22,9.65h11.55c5.09,0,9.22-4.32,9.22-9.65v-49.96c0-1.75,1.36-3.18,3.03-3.18h0c2.65,0,4.03-3.31,2.22-5.34L94.29,5.13c-3.65-4.11-9.86-4.11-13.51,0l-41.5,46.71c-1.8,2.03-.43,5.34,2.22,5.34h0c1.68,0,3.03,1.42,3.03,3.18v13.67"/>
        <g>
          <path class="cls-5" d="m50.53,80.2l17,17.79c4.15,3.99,6.57,5.58,9,6.28.94.27,3.12.81,6,2.09,1.78.79,4.05,2.41,5,3.14,3.47,2.67,4.13,9.48,2,14.65-2.71,6.59-8,7.33-14,7.33-1.69,0-5.1-.14-10-2.09-4.54-1.81-7.92-4.18-10-6.28-.51-.51-.87-.91-1-1.05-2.63-2.85-8.71-9.25-22-23.03"/>
          <ellipse class="cls-1" cx="45.3" cy="122.79" rx="5.03" ry="7.15" transform="translate(-73.21 67.26) rotate(-44.64)"/>
          <line class="cls-3" x1="44.64" y1="111.63" x2="39.68" y2="118.49"/>
          <line class="cls-3" x1="54.54" y1="121.82" x2="50.7" y2="127.46"/>
          <ellipse class="cls-4" cx="56.16" cy="100.44" rx=".51" ry=".53"/>
          <ellipse class="cls-4" cx="53.36" cy="104.09" rx=".51" ry=".53"/>
          <ellipse class="cls-4" cx="61.33" cy="105.15" rx=".51" ry=".53"/>
          <ellipse class="cls-4" cx="58.53" cy="108.68" rx=".51" ry=".53"/>
          <path class="cls-5" d="m32.53,99.04c-13.17-13.91-19.27-20.27-22-23.03-.13-.13-.51-.52-1-1.05-2.01-2.18-4.27-5.72-6-10.47-1.87-5.13-2-8.7-2-10.47,0-6.28.71-11.81,7-14.65,4.94-2.23,11.45-1.54,14,2.09.7.99,2.24,3.37,3,5.23,1.23,3.01,1.74,5.29,2,6.28.67,2.54,2.19,5.07,6,9.42l17,17.79"/>
          <ellipse class="cls-1" cx="9.84" cy="85.68" rx="5" ry="7.19" transform="translate(-50.45 24.01) rotate(-37.8)"/>
          <line class="cls-3" x1="20.51" y1="86.37" x2="13.95" y2="91.56"/>
          <line class="cls-3" x1="10.77" y1="76.01" x2="5.38" y2="80.03"/>
          <ellipse class="cls-4" cx="31.2" cy="74.32" rx=".51" ry=".53"/>
          <ellipse class="cls-4" cx="27.71" cy="77.24" rx=".51" ry=".53"/>
          <ellipse class="cls-4" cx="26.7" cy="68.9" rx=".51" ry=".53"/>
          <ellipse class="cls-4" cx="23.33" cy="71.83" rx=".51" ry=".53"/>
        </g>
      </g>
      <text class="cls-6" transform="translate(25.33 185.55) scale(.96 1)"><tspan x="0" y="0">Home</tspan></text>
    </g>
  </g>
</svg>