<?xml version="1.0" encoding="UTF-8"?>
<svg id="Laag_2" data-name="Laag 2" xmlns="http://www.w3.org/2000/svg" viewBox="0 0 80.46 105.24">
  <defs>
    <style>
      .cls-1 {
        fill: #666;
      }

      .cls-1, .cls-2 {
        stroke-width: 0px;
      }

      .cls-3 {
        fill: none;
        stroke: #000;
        stroke-miterlimit: 10;
        stroke-width: 3.92px;
      }
    </style>
  </defs>
  <g id="Laag_2-2" data-name="Laag 2">
    <g>
      <path class="cls-3" d="m78.5,38.72C78.5,18.42,61.36,1.96,40.23,1.96S1.96,18.42,1.96,38.72c0,10.78,5.21,20.11,12.54,27.21,25.73,24.93,25.73,39.32,25.73,39.32,0,0,0-14.52,26.1-39.65,7.23-6.96,12.16-16.27,12.16-26.88Z"/>
      <g>
        <path class="cls-2" d="m46.19,16.33c-1.83-1.62-5.97,6.11-5.97,6.11l-6.53,11.03-7.2-4.05,7.76-13.1c.73-1.23,2.07-1.99,3.53-1.99h4.89c1.45,0,2.8.76,3.53,1.99Z"/>
        <path class="cls-1" d="m55.34,26.43l-3.2,8.02-8.72-1.31,2.35-1.32-5.55-9.38s4.14-7.74,5.97-6.11l6.78,11.44,2.37-1.34Z"/>
        <path class="cls-2" d="m16.01,46.97c-.52,2.36,8.42,1.99,8.42,1.99h13.07s0,8.1,0,8.1h-15.51c-1.45,0-2.8-.76-3.53-1.99l-2.45-4.13c-.73-1.23-.73-2.74,0-3.97Z"/>
        <path class="cls-1" d="m20.41,34.19l8.72-1.31,3.2,8.02-2.35-1.32-5.55,9.38s-8.94.37-8.42-1.99l6.77-11.44-2.37-1.34Z"/>
        <path class="cls-2" d="m58.47,57.02c2.36-.74-2.44-8.1-2.44-8.1l-6.54-11.03,7.2-4.05,7.76,13.1c.73,1.23.73,2.74,0,3.97l-2.45,4.13c-.73,1.23-2.07,1.99-3.53,1.99Z"/>
        <path class="cls-1" d="m44.92,59.69l-5.52-6.71,5.52-6.71v2.65s11.11,0,11.11,0c0,0,4.8,7.36,2.44,8.1h-13.55s0,2.67,0,2.67Z"/>
      </g>
    </g>
  </g>
</svg>