<?xml version="1.0" encoding="UTF-8"?>
<svg id="Laag_2" data-name="Laag 2" xmlns="http://www.w3.org/2000/svg" viewBox="0 0 797.48 86.04">
  <defs>
    <style>
      .cls-1 {
        stroke-width: 0px;
      }
    </style>
  </defs>
  <g id="Laag_1-2" data-name="Laag 1">
    <g>
      <g>
        <path class="cls-1" d="m4.32,19.2C4.32,15.84,7.74.06,31.86.06c15.06,0,26.7,6.24,26.7,6.24l-2.4,13.2S52.8,2.28,30.96,2.28c-8.28,0-19.02,4.14-19.02,16.86,0,24.06,53.46,12.6,53.46,42.6,0,17.4-13.14,24.3-34.08,24.3S1.86,75,0,71.64l5.1-8.28c1.02,3.78,8.4,20.58,26.28,20.58,16.68,0,24.42-8.34,24.42-21.18,0-25.08-51.48-12.6-51.48-43.56Z"/>
        <path class="cls-1" d="m79.44,77.7c0,7.14,2.46,8.34,2.46,8.34h-12.3s2.52-1.2,2.52-8.34V8.04c0-7.14-2.52-7.98-2.52-7.98h12.3s-2.46.78-2.46,7.92v51.96L122.4,8.04c3.66-4.44,2.46-7.98,2.46-7.98h9.96s-6.3,2.28-10.98,7.92l-21.96,26.52,24.3,43.2c4.5,7.14,7.74,8.34,7.74,8.34h-12.3s1.74-1.2-2.76-8.34l-21.18-38.16-18.24,22.02v16.14Z"/>
        <path class="cls-1" d="m198.24,77.64l-6.84-17.52h-38.34l-6.9,17.52c-2.76,7.14-.78,8.34-.78,8.34h-6.36s3-1.2,5.76-8.34L175.2.06l30.36,77.58c2.82,7.14,5.76,8.34,5.76,8.34h-12.3s2.04-1.2-.78-8.34Zm-7.38-18.96l-18.66-47.58-18.6,47.58h37.26Z"/>
        <path class="cls-1" d="m261.72,11.46s-3-8.34-27.48-9.06c-.48,1.26-.84,3.18-.84,6v69.72c0,7.14,2.46,7.86,2.46,7.86h-12.3s2.52-.78,2.52-7.92V8.4c0-2.82-.42-4.74-.9-6-24.66.66-27.66,9.06-27.66,9.06l2.46-11.46h59.28l2.46,11.46Z"/>
        <path class="cls-1" d="m283.08,37.98h-7.32v39.66c0,2.82.36,4.74.84,6h14.58c28.08,0,31.38-9.06,31.38-9.06l-2.46,11.4h-54.18s2.52-1.2,2.52-8.34V7.98c0-7.14-2.52-7.98-2.52-7.98h54.18l2.46,11.46s-3.3-9.06-31.38-9.06h-14.7c-.42,1.14-.72,2.94-.72,5.52v28.02h7.32c12,0,14.4-6.06,14.4-6.06v14.16s-2.4-6.06-14.4-6.06Z"/>
      </g>
      <g>
        <path class="cls-1" d="m367.01,20.47c0,11.03-7.92,19.96-17.67,19.96s-17.67-8.93-17.67-19.96S339.6.48,349.35.48s17.67,8.96,17.67,19.99Zm-3.56-.08c0-10.36-6.33-18.82-14.11-18.82s-14.11,8.46-14.11,18.82,6.33,18.82,14.11,18.82,14.11-8.43,14.11-18.82Z"/>
        <path class="cls-1" d="m370.15,4.29c0-3.33-1.18-3.92-1.18-3.92h5.74s-1.15.59-1.15,3.92c0,0,0-1.37,0,21.78,0,7.78,3.47,13.1,11.26,13.1,6.83,0,11.2-3.64,11.2-13.97V4.09c0-3.33-1.15-3.72-1.15-3.72h2.97s-1.18.36-1.18,3.7v21.48c-.03,10.75-3.64,14.98-11.84,14.98-9.55,0-14.56-4.4-14.67-13.3V4.29Z"/>
        <path class="cls-1" d="m429.76,5.72s-1.4-3.89-12.82-4.23c-.22.59-.39,1.48-.39,2.8v32.54c0,3.33,1.15,3.67,1.15,3.67h-5.74s1.18-.36,1.18-3.7V4.29c0-1.32-.2-2.21-.42-2.8-11.51.31-12.91,4.23-12.91,4.23l1.15-5.35h27.66l1.15,5.35Z"/>
        <path class="cls-1" d="m384.19,65.47c0,11.03-7.92,19.96-17.67,19.96s-17.67-8.93-17.67-19.96,7.92-19.99,17.67-19.99,17.67,8.96,17.67,19.99Zm-3.56-.08c0-10.36-6.33-18.82-14.11-18.82s-14.11,8.46-14.11,18.82,6.33,18.82,14.11,18.82,14.11-8.43,14.11-18.82Z"/>
        <path class="cls-1" d="m394.27,63.09h-3.53v18.51c0,3.33,1.15,3.89,1.15,3.89h-5.74s1.18-.56,1.18-3.89v-32.51c0-3.33-1.18-3.72-1.18-3.72h25.28l1.15,5.35s-1.54-4.23-14.64-4.23h-6.86c-.2.53-.34,1.37-.34,2.58v13.08h3.53c5.6,0,6.75-2.83,6.75-2.83v6.61s-1.15-2.83-6.75-2.83Z"/>
      </g>
      <g>
        <path class="cls-1" d="m473.36,85.98l-30.36-77.58c-2.82-7.14-5.82-8.4-5.82-8.4h12.3s-1.98,1.26.78,8.4l26.04,66.54,17.7-45.12-8.4-21.42c-2.82-7.14-5.76-8.4-5.76-8.4h12.3s-2.04,1.26.78,8.4l26.04,66.54,26.04-66.54c2.76-7.14.78-8.4.78-8.4h6.36s-3,1.26-5.76,8.4l-30.42,77.58-21.3-54.42-21.3,54.42Z"/>
        <path class="cls-1" d="m591.56,77.64l-6.84-17.52h-38.34l-6.9,17.52c-2.76,7.14-.78,8.34-.78,8.34h-6.36s3-1.2,5.76-8.34L568.52.06l30.36,77.58c2.82,7.14,5.76,8.34,5.76,8.34h-12.3s2.04-1.2-.78-8.34Zm-7.38-18.96l-18.66-47.58-18.6,47.58h37.26Z"/>
        <path class="cls-1" d="m607.16,19.2c0-3.36,3.42-19.14,27.54-19.14,15.06,0,26.7,6.24,26.7,6.24l-2.4,13.2s-3.36-17.22-25.2-17.22c-8.28,0-19.02,4.14-19.02,16.86,0,24.06,53.46,12.6,53.46,42.6,0,17.4-13.14,24.3-34.08,24.3s-29.46-11.04-31.32-14.4l5.1-8.28c1.02,3.78,8.4,20.58,26.28,20.58,16.68,0,24.42-8.34,24.42-21.18,0-25.08-51.48-12.6-51.48-43.56Z"/>
        <path class="cls-1" d="m736.64,11.46s-3-8.34-27.48-9.06c-.48,1.26-.84,3.18-.84,6v69.72c0,7.14,2.46,7.86,2.46,7.86h-12.3s2.52-.78,2.52-7.92V8.4c0-2.82-.42-4.74-.9-6-24.66.66-27.66,9.06-27.66,9.06l2.46-11.46h59.28l2.46,11.46Z"/>
        <path class="cls-1" d="m758,37.98h-7.32v39.66c0,2.82.36,4.74.84,6h14.58c28.08,0,31.38-9.06,31.38-9.06l-2.46,11.4h-54.18s2.52-1.2,2.52-8.34V7.98c0-7.14-2.52-7.98-2.52-7.98h54.18l2.46,11.46s-3.3-9.06-31.38-9.06h-14.7c-.42,1.14-.72,2.94-.72,5.52v28.02h7.32c12,0,14.4-6.06,14.4-6.06v14.16s-2.4-6.06-14.4-6.06Z"/>
      </g>
    </g>
  </g>
</svg>