<?xml version="1.0" encoding="UTF-8"?>
<svg id="Laag_2" data-name="Laag 2" xmlns="http://www.w3.org/2000/svg" viewBox="0 0 188.31 274.42">
  <defs>
    <style>
      .cls-1 {
        stroke-width: 3px;
      }

      .cls-1, .cls-2, .cls-3 {
        fill: none;
        stroke: #b3b3b3;
        stroke-miterlimit: 10;
      }

      .cls-4 {
        fill: #b3b3b3;
      }

      .cls-4, .cls-5 {
        stroke-width: 0px;
      }

      .cls-5 {
        fill: #ccc;
      }

      .cls-2 {
        stroke-width: 6px;
      }

      .cls-3 {
        stroke-linecap: round;
      }
    </style>
  </defs>
  <g id="Laag_1-2" data-name="Laag 1">
    <g>
      <ellipse class="cls-1" cx="93.12" cy="52.96" rx="82.39" ry="29.86"/>
      <path class="cls-1" d="m10.73,52.96v48.8c0,16.49,36.89,29.86,82.39,29.86s82.39-13.37,82.39-29.86v-48.8"/>
      <line class="cls-3" x1="15.83" y1="105.4" x2="15.83" y2="69.49"/>
      <line class="cls-3" x1="22.82" y1="111.63" x2="22.82" y2="73.98"/>
      <line class="cls-3" x1="29.84" y1="115.58" x2="29.84" y2="77.36"/>
      <line class="cls-3" x1="36.82" y1="118.98" x2="36.82" y2="79.72"/>
      <line class="cls-3" x1="43.78" y1="121.07" x2="43.78" y2="81.81"/>
      <line class="cls-3" x1="50.77" y1="122.79" x2="50.77" y2="83.53"/>
      <line class="cls-3" x1="57.75" y1="124.13" x2="57.75" y2="84.87"/>
      <line class="cls-3" x1="64.77" y1="125.05" x2="64.77" y2="85.79"/>
      <line class="cls-3" x1="71.82" y1="125.84" x2="71.82" y2="86.58"/>
      <line class="cls-3" x1="78.89" y1="126.46" x2="78.89" y2="87.2"/>
      <line class="cls-3" x1="85.98" y1="126.68" x2="85.98" y2="87.42"/>
      <line class="cls-3" x1="170.49" y1="105.3" x2="170.49" y2="69.4"/>
      <line class="cls-3" x1="163.49" y1="111.54" x2="163.49" y2="73.89"/>
      <line class="cls-3" x1="156.48" y1="115.48" x2="156.48" y2="77.26"/>
      <line class="cls-3" x1="149.5" y1="118.89" x2="149.5" y2="79.63"/>
      <line class="cls-3" x1="142.54" y1="120.98" x2="142.54" y2="81.72"/>
      <line class="cls-3" x1="135.55" y1="122.7" x2="135.55" y2="83.44"/>
      <line class="cls-3" x1="128.57" y1="124.03" x2="128.57" y2="84.77"/>
      <line class="cls-3" x1="121.5" y1="124.96" x2="121.5" y2="85.7"/>
      <line class="cls-3" x1="114.45" y1="125.88" x2="114.45" y2="86.62"/>
      <line class="cls-3" x1="107.35" y1="126.36" x2="107.35" y2="87.1"/>
      <line class="cls-3" x1="100.26" y1="126.68" x2="100.26" y2="87.42"/>
      <line class="cls-3" x1="93.12" y1="126.85" x2="93.12" y2="87.59"/>
      <path class="cls-1" d="m149.5,223.03c0,27.55-25.24,49.89-56.37,49.89s-56.37-22.34-56.37-49.89"/>
      <line class="cls-1" x1="36.75" y1="123.53" x2="36.75" y2="223.03"/>
      <line class="cls-1" x1="149.5" y1="123.53" x2="149.5" y2="223.03"/>
      <path class="cls-1" d="m149.5,165.75h8.95c2.69,0,4.87,2.18,4.87,4.87v38.94c0,2.69-2.18,4.87-4.87,4.87h-8.95"/>
      <path class="cls-1" d="m36.75,165.75h-8.95c-2.69,0-4.87,2.18-4.87,4.87v38.94c0,2.69,2.18,4.87,4.87,4.87h8.95"/>
      <g>
        <path class="cls-4" d="m103.94,34.09c-3.19-1.46-10.38,5.5-10.38,5.5l-11.36,9.92-12.51-3.64,13.48-11.78c1.26-1.1,3.6-1.79,6.13-1.79h8.5c2.53,0,4.87.68,6.13,1.79Z"/>
        <path class="cls-5" d="m119.85,43.18l-5.56,7.21-15.16-1.17,4.09-1.19-9.66-8.44s7.2-6.96,10.38-5.5l11.78,10.29,4.13-1.2Z"/>
        <path class="cls-4" d="m51.48,61.65c-.91,2.12,14.63,1.79,14.63,1.79h22.72s0,7.29,0,7.29h-26.97c-2.53,0-4.87-.68-6.13-1.79l-4.25-3.71c-1.26-1.1-1.26-2.47,0-3.57Z"/>
        <path class="cls-5" d="m59.14,50.16l15.16-1.18,5.56,7.21-4.09-1.19-9.66,8.44s-15.55.34-14.63-1.79l11.78-10.29-4.13-1.2Z"/>
        <path class="cls-4" d="m125.29,70.69c4.1-.66-4.25-7.29-4.25-7.29l-11.36-9.92,12.51-3.64,13.49,11.78c1.26,1.1,1.26,2.47,0,3.57l-4.25,3.71c-1.26,1.1-3.61,1.79-6.13,1.79Z"/>
        <path class="cls-5" d="m101.74,73.09l-9.6-6.04,9.6-6.03v2.38s19.31,0,19.31,0c0,0,8.35,6.62,4.25,7.29h-23.56s0,2.4,0,2.4Z"/>
      </g>
      <circle class="cls-2" cx="79.52" cy="181.08" r=".77"/>
      <circle class="cls-2" cx="79.52" cy="199.11" r=".77"/>
      <circle class="cls-2" cx="106.73" cy="181.08" r=".77"/>
      <circle class="cls-2" cx="106.73" cy="199.11" r=".77"/>
      <g>
        <g>
          <path class="cls-4" d="m.24,26.16c-.33-.64-1.14-4.17,4.4-6.77,3.46-1.6,6.7-1.47,6.69-1.47.19.96.39,1.93.58,2.89,0,.01-2.25-3.18-7.28-.88-1.9.88-3.95,2.88-2.71,5.38,2.29,4.6,13.09-3.03,15.62,3.15,1.44,3.53-.77,6.04-5.14,8.05-4.37,2.04-7.2.82-7.93.35.08-.72.17-1.44.26-2.16.6.63,3.77,3.12,7.49,1.38,3.49-1.61,4.42-3.96,3.32-6.55-2.19-5.15-12.29,2.55-15.31-3.38Z"/>
          <path class="cls-4" d="m21.9,30.46c.57,1.45,1.19,1.49,1.19,1.49-.87.34-1.75.69-2.61,1.05,0,0,.43-.46-.15-1.91-1.91-4.71-3.81-9.41-5.72-14.12-.59-1.45-1.24-1.38-1.24-1.38.95-.39,1.91-.77,2.87-1.15,0,0-.51.39.06,1.84,1.39,3.52,2.78,7.05,4.17,10.57,1.75-4.76,3.7-9.51,5.86-14.23.55-1.21.03-1.85.03-1.85.79-.26,1.58-.52,2.37-.77,0,0-1.35.96-2.06,2.5-1.11,2.41-2.16,4.83-3.16,7.25,2.92,2.29,5.76,4.64,8.52,7.04,1.47,1.16,2.25,1.18,2.25,1.18-.89.29-1.78.58-2.66.88,0,0,.3-.38-1.19-1.52-2.44-2.11-4.93-4.17-7.49-6.19-.81,2.01-1.59,4.03-2.33,6.05.43,1.09.86,2.19,1.3,3.28Z"/>
          <path class="cls-4" d="m47.9,22.24c-.8-1.12-1.62-2.24-2.44-3.35-2.89.72-5.77,1.5-8.64,2.35-.15,1.38-.29,2.75-.42,4.13-.15,1.68.37,1.8.36,1.8-.46.14-.92.28-1.38.43,0,0,.57-.45.71-2.13.56-6.09,1.33-12.2,2.3-18.32,3.9,4.81,7.62,9.71,11.14,14.7.98,1.38,1.68,1.49,1.68,1.49-.91.2-1.81.41-2.71.63,0,0,.39-.36-.6-1.73Zm-2.64-3.62c-2.25-3.01-4.57-5.99-6.96-8.94-.56,3.75-1.04,7.49-1.45,11.23,2.79-.83,5.59-1.59,8.41-2.29Z"/>
          <path class="cls-4" d="m59.79,5.11s-1.02-1.74-7.01-.76c-.06.29-.07.72.05,1.33.98,4.99,1.96,9.97,2.94,14.96.3,1.53.88,1.58.88,1.58-.91.18-1.82.36-2.73.55,0,0,.52-.28.21-1.81-1.02-4.97-2.04-9.95-3.06-14.92-.12-.6-.31-.99-.48-1.24-5.95,1.41-6.22,3.44-6.23,3.42,0-.86,0-1.72,0-2.58,4.78-1.14,9.59-2.1,14.42-2.9.34.79.67,1.58,1,2.38Z"/>
          <path class="cls-4" d="m65.74,10.08c-.58.08-1.15.16-1.72.24.42,2.86.83,5.72,1.25,8.58.09.61.23,1.01.38,1.27,1.09-.16,2.18-.3,3.27-.44,6.29-.76,6.87-2.71,6.87-2.73-.11.84-.22,1.69-.33,2.53-4.05.37-8.09.88-12.12,1.51,0,0,.52-.35.28-1.89-.77-5.02-1.55-10.04-2.32-15.06-.24-1.54-.88-1.63-.88-1.63,4.42-.69,8.86-1.25,13.3-1.66.28.81.56,1.63.83,2.44,0,.03-.98-1.97-7.87-1.14-1.2.15-2.4.31-3.6.49-.07.26-.08.66,0,1.22.29,2.02.59,4.04.88,6.06.58-.08,1.15-.16,1.73-.24,2.83-.38,3.25-1.75,3.25-1.75.12,1.02.24,2.05.37,3.07,0,0-.72-1.26-3.55-.88Z"/>
        </g>
        <g>
          <path class="cls-4" d="m85.45,4.54c.08,2.41-1.72,4.43-4.02,4.56-2.29.13-4.32-1.66-4.52-4.07-.2-2.4,1.6-4.52,4.01-4.66,2.41-.14,4.44,1.75,4.52,4.16Zm-.86.02c-.09-2.26-1.72-4.05-3.65-3.94-1.92.11-3.34,2.08-3.17,4.33.18,2.27,1.81,3.99,3.64,3.88,1.84-.11,3.26-2.01,3.17-4.28Z"/>
          <path class="cls-4" d="m86.09.97c-.02-.73-.32-.85-.32-.85.47-.02.94-.03,1.42-.04,0,0-.28.14-.26.87,0,0,0-.3.14,4.76.05,1.7.91,2.84,2.75,2.8,1.62-.03,2.65-.82,2.64-3.08,0-1.54,0-3.08-.01-4.62,0-.73-.29-.81-.29-.81.24,0,.49,0,.73,0,0,0-.29.08-.29.81,0,1.57,0,3.13.01,4.7,0,2.35-.86,3.27-2.79,3.3-2.26.04-3.47-.87-3.57-2.82-.06-1.67-.11-3.34-.17-5.01Z"/>
          <path class="cls-4" d="m100.74,1.31s-.31-.87-3.13-1.02c-.06.13-.1.32-.11.61-.05,2.37-.1,4.74-.15,7.11-.02.73.25.81.25.81-.45-.01-.91-.02-1.36-.03,0,0,.28-.08.29-.8.04-2.37.08-4.74.12-7.11,0-.29-.04-.48-.09-.61-2.84.03-3.19.9-3.19.9.09-.39.19-.78.28-1.17,2.28,0,4.55.05,6.83.13.08.39.16.79.24,1.18Z"/>
          <path class="cls-4" d="m89.77,14.27c.03,2.41-1.72,4.39-3.9,4.47-2.18.08-4.08-1.76-4.23-4.17-.15-2.41,1.6-4.48,3.9-4.56,2.3-.09,4.2,1.85,4.23,4.26Zm-.82,0c-.04-2.26-1.57-4.09-3.4-4.02-1.84.07-3.22,2-3.09,4.26.13,2.27,1.66,4.03,3.4,3.96,1.75-.07,3.13-1.94,3.09-4.21Z"/>
          <path class="cls-4" d="m92.09,13.72c-.27,0-.54,0-.81,0,.01,1.35.03,2.7.04,4.05,0,.73.27.85.27.85-.43,0-.86,0-1.29.01,0,0,.26-.13.25-.85-.03-2.37-.06-4.74-.1-7.11,0-.73-.29-.81-.29-.81,1.98-.03,3.97-.03,5.95,0,.08.39.17.78.25,1.17,0,0-.34-.94-3.43-.95-.54,0-1.08,0-1.61,0-.04.12-.08.3-.07.56,0,.95.02,1.91.03,2.86.27,0,.54,0,.82,0,1.29,0,1.56-.62,1.56-.62,0,.48,0,.96,0,1.45,0,0-.26-.62-1.56-.62Z"/>
        </g>
        <g>
          <path class="cls-4" d="m109.9,19.46c-1.78-5.83-3.76-11.64-5.94-17.42-.61-1.6-1.34-1.9-1.34-1.9,1.01.05,2.02.1,3.04.16,0,0-.5.25.08,1.85,1.83,4.97,3.51,9.96,5.04,14.97,1.64-3.15,3.34-6.29,5.12-9.4-.49-1.63-1-3.25-1.53-4.87-.53-1.62-1.23-1.97-1.23-1.97,1.01.1,2.02.2,3.03.31,0,0-.53.22-.01,1.85,1.58,5.06,3.01,10.13,4.29,15.21,2.64-4.52,5.43-9,8.36-13.41.94-1.42.51-1.78.5-1.78.52.09,1.04.18,1.55.28,0,0-.78.14-1.72,1.56-3.43,5.14-6.66,10.36-9.7,15.65-1.04-4.15-2.19-8.29-3.43-12.42-2.13,3.75-4.17,7.54-6.11,11.35Z"/>
          <path class="cls-4" d="m136.64,21.84c-.22-1.36-.45-2.72-.69-4.09-2.91-.64-5.82-1.22-8.75-1.73-.75,1.17-1.48,2.34-2.21,3.51-.87,1.44-.47,1.77-.47,1.77-.47-.08-.94-.15-1.42-.23,0,0,.71-.15,1.58-1.59,3.2-5.2,6.59-10.33,10.18-15.38,1.34,6.04,2.48,12.09,3.41,18.12.26,1.67.84,2.08.84,2.08-.9-.22-1.81-.44-2.71-.65,0,0,.51-.15.24-1.82Zm-.75-4.42c-.67-3.7-1.41-7.4-2.24-11.1-2.17,3.11-4.26,6.24-6.28,9.41,2.85.5,5.69,1.06,8.52,1.69Z"/>
          <path class="cls-4" d="m143.2,10.27c.17-.69,1.83-3.91,7.64-2.29,3.62,1.03,5.97,3.23,5.96,3.22-.48.86-.96,1.71-1.44,2.57,0,.02.37-3.88-4.87-5.39-1.99-.57-4.8-.37-5.49,2.33-1.29,4.98,11.73,6.19,9.64,12.53-1.2,3.62-4.51,4.08-9.07,2.78-4.57-1.28-5.87-4.04-6.12-4.87.52-.49,1.05-.98,1.58-1.47.04.87.78,4.81,4.68,5.91,3.64,1.04,5.87-.14,6.72-2.82,1.68-5.34-10.84-6.04-9.24-12.5Z"/>
          <path class="cls-4" d="m173.95,18.74s.04-2.02-5.63-4.4c-.21.21-.44.57-.66,1.15-1.81,4.75-3.62,9.5-5.44,14.25-.56,1.46-.09,1.81-.09,1.81-.88-.34-1.75-.67-2.63-.99,0,0,.6.04,1.14-1.42,1.77-4.76,3.54-9.52,5.31-14.28.22-.58.26-1.01.25-1.31-5.85-1.98-7.15-.39-7.14-.41.46-.73.92-1.46,1.38-2.18,4.68,1.58,9.33,3.33,13.92,5.24-.13.85-.26,1.7-.4,2.55Z"/>
          <path class="cls-4" d="m176.44,26.15c-.54-.24-1.08-.48-1.62-.72-1.17,2.65-2.33,5.29-3.5,7.94-.25.56-.34.98-.35,1.28,1.02.45,2.05.91,3.06,1.39,5.86,2.76,7.42,1.43,7.43,1.41-.55.65-1.09,1.31-1.64,1.96-3.73-1.88-7.5-3.64-11.31-5.27,0,0,.63-.01,1.25-1.45,2.01-4.66,4.01-9.33,6.02-13.99.62-1.43.11-1.85.11-1.85,4.19,1.79,8.33,3.71,12.42,5.78-.19.84-.38,1.68-.58,2.52,0,.03.19-2.21-6.23-5.23-1.12-.52-2.25-1.03-3.37-1.53-.2.19-.43.52-.65,1.03-.82,1.87-1.65,3.74-2.47,5.61.54.24,1.08.48,1.62.72,2.65,1.2,3.74.27,3.75.27-.44.93-.88,1.87-1.32,2.8,0,0,.05-1.46-2.61-2.66Z"/>
        </g>
      </g>
    </g>
  </g>
</svg>